<svg xmlns="http://www.w3.org/2000/svg" xmlns:xlink="http://www.w3.org/1999/xlink" width="500" zoomAndPan="magnify" viewBox="0 0 375 374.999991" height="500" preserveAspectRatio="xMidYMid meet" version="1.0"><defs><g/><clipPath id="9692ed1495"><path d="M 95 91 L 326 91 L 326 256 L 95 256 Z M 95 91 " clip-rule="nonzero"/></clipPath><clipPath id="74d6e4945f"><path d="M 275.277344 255.527344 L 95.621094 123.84375 L 157.695312 39.15625 L 337.351562 170.839844 Z M 275.277344 255.527344 " clip-rule="nonzero"/></clipPath><clipPath id="d73b0b3e1d"><path d="M 212.816406 435.960938 L -19.46875 265.703125 L 150.792969 33.417969 L 383.074219 203.679688 Z M 212.816406 435.960938 " clip-rule="nonzero"/></clipPath><clipPath id="60a52b6a83"><path d="M 75.28125 115.53125 L 172.78125 115.53125 L 172.78125 238.53125 L 75.28125 238.53125 Z M 75.28125 115.53125 " clip-rule="nonzero"/></clipPath><clipPath id="7532e106bf"><path d="M 24 123 L 95 123 L 95 259 L 24 259 Z M 24 123 " clip-rule="nonzero"/></clipPath><clipPath id="95f5c4c24f"><path d="M 130.292969 231.769531 L 36.332031 262.949219 L 0.191406 154.039062 L 94.15625 122.859375 Z M 130.292969 231.769531 " clip-rule="nonzero"/></clipPath><clipPath id="24b582e829"><path d="M 130.292969 231.769531 L 36.332031 262.949219 L 0.191406 154.039062 L 94.15625 122.859375 Z M 130.292969 231.769531 " clip-rule="nonzero"/></clipPath></defs><g clip-path="url(#9692ed1495)"><g clip-path="url(#74d6e4945f)"><g clip-path="url(#d73b0b3e1d)"><path fill="#eaaffa" d="M 96.800781 350.925781 C 160.75 397.796875 250.980469 383.894531 297.851562 319.949219 C 344.722656 256 330.820312 165.769531 266.875 118.898438 C 202.925781 72.023438 112.695312 85.925781 65.824219 149.875 C 18.949219 213.824219 32.851562 304.054688 96.800781 350.925781 Z M 265.433594 120.863281 C 328.304688 166.945312 341.972656 255.636719 295.886719 318.507812 C 249.804688 381.378906 161.113281 395.046875 98.242188 348.960938 C 35.371094 302.878906 21.703125 214.1875 67.789062 151.316406 C 113.871094 88.441406 202.5625 74.777344 265.433594 120.863281 Z M 265.433594 120.863281 " fill-opacity="1" fill-rule="nonzero"/></g></g></g><g clip-path="url(#60a52b6a83)"><path fill="#cb6ce6" d="M 172.378906 115.53125 C 172.164062 115.578125 171.925781 115.585938 171.726562 115.6875 C 170.625 116.246094 169.527344 116.800781 168.445312 117.402344 C 167.632812 117.863281 166.945312 118.480469 166.386719 119.265625 C 164.8125 121.464844 163.417969 123.78125 162.09375 126.136719 C 158.195312 133.09375 154.953125 140.355469 151.96875 147.742188 C 148.425781 156.503906 145.179688 165.378906 142.0625 174.308594 C 138.46875 184.601562 134.941406 194.921875 131.742188 205.355469 C 129.246094 213.5 126.988281 221.71875 124.945312 229.992188 C 124.910156 230.132812 124.859375 230.265625 124.820312 230.40625 C 124.785156 230.40625 124.753906 230.414062 124.710938 230.414062 C 124.515625 229.984375 124.316406 229.554688 124.136719 229.121094 C 121.027344 221.957031 118.488281 214.585938 116.148438 207.152344 C 113.535156 198.871094 110.980469 190.5625 108.507812 182.234375 C 106.28125 174.71875 104.222656 167.160156 102.0625 159.628906 C 101.90625 159.082031 102.054688 158.6875 102.285156 158.234375 C 104.734375 153.5625 106.710938 148.707031 108.113281 143.621094 C 109.308594 139.300781 110.058594 134.917969 109.957031 130.414062 C 109.882812 127.054688 109.347656 123.773438 108.039062 120.65625 C 107.503906 119.386719 106.851562 118.183594 105.894531 117.171875 C 104.9375 116.148438 103.828125 115.851562 102.546875 116.453125 C 101.386719 117.003906 100.242188 117.597656 99.113281 118.21875 C 96.574219 119.601562 94.949219 121.761719 93.878906 124.398438 C 92.558594 127.636719 92.015625 131.015625 91.875 134.480469 C 91.683594 139.070312 92.1875 143.605469 92.980469 148.121094 C 93.769531 152.652344 94.84375 157.121094 95.988281 161.574219 C 96.078125 161.917969 96.046875 162.207031 95.863281 162.511719 C 94.667969 164.5625 93.523438 166.640625 92.277344 168.660156 C 89.609375 172.988281 86.699219 177.152344 83.285156 180.933594 C 81.207031 183.226562 79.042969 185.425781 76.402344 187.089844 C 76.125 187.265625 75.875 187.488281 75.636719 187.710938 C 75.523438 187.808594 75.449219 187.957031 75.28125 188.179688 C 75.5625 188.164062 75.71875 188.179688 75.859375 188.136719 C 76.125 188.0625 76.378906 187.964844 76.632812 187.859375 C 79.816406 186.488281 82.542969 184.46875 85.074219 182.136719 C 88.71875 178.773438 91.808594 174.949219 94.628906 170.902344 C 95.535156 169.601562 96.40625 168.265625 97.355469 166.863281 C 97.429688 167.09375 97.480469 167.242188 97.519531 167.398438 C 98.5 170.902344 99.433594 174.414062 100.472656 177.902344 C 102.335938 184.191406 104.269531 190.453125 106.167969 196.734375 C 108.871094 205.695312 111.566406 214.660156 114.839844 223.433594 C 116.171875 227.015625 117.683594 230.535156 119.164062 234.066406 C 119.726562 235.410156 120.453125 236.675781 121.425781 237.78125 C 121.925781 238.351562 122.519531 238.566406 123.222656 238.210938 C 124.277344 237.683594 125.324219 237.140625 126.371094 236.601562 C 127.953125 235.789062 128.925781 234.558594 129.320312 232.777344 C 129.964844 229.871094 130.703125 226.984375 131.4375 224.097656 C 134.257812 213.003906 137.429688 202.007812 141.089844 191.164062 C 143.902344 182.828125 146.726562 174.503906 149.644531 166.203125 C 152.984375 156.71875 156.527344 147.304688 160.542969 138.074219 C 162.925781 132.589844 165.503906 127.21875 168.519531 122.050781 C 169.675781 120.070312 170.945312 118.160156 172.15625 116.214844 C 172.273438 116.023438 172.371094 115.828125 172.476562 115.628906 C 172.4375 115.605469 172.402344 115.5625 172.378906 115.53125 Z M 100.414062 152.496094 C 100.382812 152.488281 100.347656 152.488281 100.308594 152.480469 C 100.183594 151.9375 100.058594 151.394531 99.9375 150.839844 C 99.078125 147.03125 98.363281 143.207031 97.957031 139.324219 C 97.496094 134.917969 97.40625 130.507812 98.238281 126.121094 C 98.585938 124.292969 99.121094 122.527344 99.886719 120.828125 C 99.945312 120.707031 100.011719 120.589844 100.117188 120.382812 C 100.414062 120.753906 100.695312 121.0625 100.917969 121.390625 C 102.277344 123.367188 103.027344 125.601562 103.519531 127.925781 C 104.4375 132.171875 104.320312 136.425781 103.644531 140.695312 C 103.019531 144.601562 101.945312 148.375 100.59375 152.078125 C 100.539062 152.226562 100.472656 152.355469 100.414062 152.496094 Z M 100.414062 152.496094 " fill-opacity="1" fill-rule="nonzero"/></g><g clip-path="url(#7532e106bf)"><g clip-path="url(#95f5c4c24f)"><g clip-path="url(#24b582e829)"><path fill="#df93f4" d="M 44.113281 215.179688 C 44.054688 215.441406 43.984375 215.699219 43.945312 215.964844 C 43.824219 216.789062 43.660156 217.605469 43.359375 218.386719 C 43.050781 219.199219 42.703125 220 42.371094 220.804688 C 42.367188 220.824219 42.355469 220.839844 42.347656 220.855469 C 41.988281 221.835938 41.539062 222.789062 41.277344 223.804688 C 41.15625 224.269531 41.058594 224.75 40.898438 225.203125 C 40.300781 226.90625 39.550781 228.535156 38.527344 230.039062 C 37.992188 230.816406 37.566406 231.671875 37.082031 232.488281 C 36.847656 232.886719 36.597656 233.28125 36.347656 233.671875 C 35.890625 234.390625 35.421875 235.101562 34.96875 235.820312 C 34.835938 236.035156 34.753906 236.273438 34.632812 236.496094 C 34.574219 236.601562 34.472656 236.664062 34.339844 236.632812 C 34.199219 236.597656 34.089844 236.488281 34.105469 236.339844 C 34.210938 235.386719 34.019531 234.445312 33.984375 233.5 C 33.953125 232.644531 34.007812 231.792969 34.125 230.953125 C 34.261719 229.992188 34.429688 229.039062 34.613281 228.089844 C 34.691406 227.695312 34.824219 227.304688 34.972656 226.925781 C 35.410156 225.804688 36.050781 224.785156 36.648438 223.746094 C 36.851562 223.390625 37.0625 223.046875 37.25 222.683594 C 37.699219 221.816406 38.335938 221.082031 38.917969 220.308594 C 39.945312 218.953125 41.019531 217.628906 42.035156 216.261719 C 42.589844 215.511719 43.019531 214.6875 43.21875 213.757812 C 43.359375 213.09375 43.511719 212.433594 43.648438 211.769531 C 43.683594 211.601562 43.691406 211.421875 43.675781 211.25 C 43.582031 210.285156 43.726562 209.351562 44.085938 208.460938 C 44.371094 207.761719 44.449219 207.039062 44.472656 206.300781 C 44.492188 205.796875 44.519531 205.296875 44.632812 204.800781 C 44.707031 204.484375 44.691406 204.148438 44.726562 203.820312 C 44.855469 202.722656 45.164062 201.660156 45.417969 200.585938 C 45.5 200.246094 45.5625 199.902344 45.652344 199.566406 C 45.769531 199.136719 45.921875 198.71875 46.027344 198.285156 C 46.128906 197.894531 46.1875 197.492188 46.253906 197.09375 C 46.261719 197.039062 46.195312 196.980469 46.136719 196.871094 C 46.027344 197 45.957031 197.085938 45.886719 197.171875 C 45.40625 197.800781 44.917969 198.429688 44.441406 199.0625 C 44.324219 199.21875 44.195312 199.375 44.125 199.550781 C 43.964844 199.957031 43.695312 200.289062 43.414062 200.605469 C 42.84375 201.253906 42.4375 202 42.089844 202.777344 C 41.535156 204.015625 40.921875 205.222656 40.3125 206.429688 C 39.84375 207.363281 39.378906 208.300781 38.917969 209.238281 C 38.097656 210.921875 36.960938 212.394531 35.804688 213.855469 C 34.675781 215.28125 33.535156 216.699219 32.398438 218.121094 C 32.238281 218.316406 32.085938 218.515625 31.914062 218.703125 C 31.335938 219.316406 30.992188 220.082031 30.523438 220.769531 C 30.363281 221.007812 30.25 221.28125 30.136719 221.550781 C 29.878906 222.179688 29.515625 222.753906 29.175781 223.335938 C 28.988281 223.652344 28.804688 223.972656 28.605469 224.28125 C 28.535156 224.386719 28.429688 224.480469 28.316406 224.546875 C 28.171875 224.632812 27.96875 224.523438 27.96875 224.363281 C 27.964844 224.171875 27.976562 223.972656 28.011719 223.785156 C 28.183594 222.871094 28.355469 221.960938 28.542969 221.050781 C 28.652344 220.519531 28.789062 219.992188 28.914062 219.464844 C 29.105469 218.65625 29.269531 217.835938 29.492188 217.035156 C 29.789062 215.992188 30.125 214.957031 30.46875 213.929688 C 30.570312 213.625 30.753906 213.339844 30.910156 213.050781 C 31.585938 211.828125 32.402344 210.699219 33.257812 209.597656 C 34.332031 208.214844 35.511719 206.9375 36.84375 205.800781 C 37.355469 205.359375 37.832031 204.875 38.339844 204.425781 C 38.671875 204.128906 39.011719 203.835938 39.367188 203.570312 C 40.285156 202.886719 41.144531 202.136719 41.996094 201.375 C 42.199219 201.195312 42.386719 200.988281 42.527344 200.761719 C 42.984375 200.011719 43.5625 199.363281 44.085938 198.667969 C 44.632812 197.9375 45.230469 197.246094 45.722656 196.480469 C 46.410156 195.40625 47.03125 194.289062 47.660156 193.175781 C 47.851562 192.839844 47.964844 192.464844 48.132812 192.113281 C 48.585938 191.15625 49.054688 190.199219 49.515625 189.238281 C 49.792969 188.664062 50.078125 188.089844 50.335938 187.507812 C 50.460938 187.226562 50.53125 186.917969 50.628906 186.625 C 50.945312 185.648438 51.269531 184.671875 51.589844 183.695312 C 51.972656 182.515625 52.351562 181.335938 52.734375 180.152344 C 52.808594 179.914062 52.898438 179.675781 52.800781 179.421875 C 52.621094 179.40625 52.5625 179.539062 52.492188 179.644531 C 51.699219 180.910156 50.828125 182.117188 49.894531 183.28125 C 49.457031 183.828125 48.914062 184.277344 48.359375 184.699219 C 46.957031 185.777344 45.851562 187.125 44.996094 188.652344 C 44.3125 189.878906 43.492188 190.996094 42.59375 192.0625 C 42.445312 192.238281 42.28125 192.40625 42.117188 192.570312 C 41.296875 193.394531 40.46875 194.207031 39.660156 195.039062 C 39.285156 195.425781 38.941406 195.851562 38.597656 196.265625 C 38.078125 196.894531 37.503906 197.472656 36.886719 198.003906 C 35.855469 198.886719 34.832031 199.777344 33.773438 200.625 C 33.15625 201.117188 32.46875 201.527344 31.8125 201.976562 C 31.078125 202.480469 30.34375 202.984375 29.613281 203.488281 C 28.273438 204.414062 26.941406 205.347656 25.601562 206.269531 C 25.347656 206.445312 25.0625 206.578125 24.792969 206.726562 C 24.667969 206.796875 24.535156 206.824219 24.402344 206.757812 C 24.335938 206.726562 24.246094 206.679688 24.230469 206.621094 C 24.160156 206.382812 24.070312 206.144531 24.199219 205.890625 C 24.292969 205.699219 24.378906 205.503906 24.441406 205.300781 C 24.941406 203.660156 25.722656 202.148438 26.597656 200.683594 C 27.019531 199.984375 27.429688 199.285156 27.867188 198.601562 C 28.863281 197.027344 30.097656 195.683594 31.683594 194.675781 C 32.304688 194.28125 32.941406 193.917969 33.605469 193.59375 C 34.546875 193.132812 35.460938 192.621094 36.300781 191.996094 C 37.332031 191.230469 38.410156 190.550781 39.539062 189.945312 C 40.207031 189.585938 40.828125 189.152344 41.421875 188.683594 C 42.109375 188.140625 42.820312 187.640625 43.640625 187.320312 C 44.066406 187.15625 44.425781 186.902344 44.707031 186.539062 C 44.84375 186.367188 45.007812 186.242188 45.234375 186.210938 C 45.453125 186.175781 45.625 186.050781 45.777344 185.894531 C 46.066406 185.605469 46.347656 185.3125 46.644531 185.035156 C 47.582031 184.164062 48.523438 183.300781 49.46875 182.4375 C 50.3125 181.660156 51.058594 180.796875 51.667969 179.824219 C 51.875 179.5 52.050781 179.148438 52.203125 178.796875 C 52.339844 178.472656 52.507812 178.171875 52.757812 177.921875 C 52.929688 177.753906 53.027344 177.554688 53.089844 177.324219 C 53.171875 177.007812 53.296875 176.699219 53.410156 176.390625 C 53.5625 175.96875 53.714844 175.550781 53.878906 175.136719 C 54.089844 174.597656 54.285156 174.046875 54.539062 173.527344 C 54.890625 172.804688 55.144531 172.054688 55.378906 171.296875 C 55.667969 170.351562 56.019531 169.425781 56.410156 168.519531 C 56.628906 168.003906 56.917969 167.515625 57.203125 167.035156 C 57.457031 166.601562 57.730469 166.183594 57.949219 165.726562 C 58.230469 165.15625 58.578125 164.613281 58.949219 164.09375 C 59.472656 163.363281 59.828125 162.546875 60.273438 161.777344 C 60.3125 161.714844 60.3125 161.632812 60.328125 161.566406 C 60.164062 161.496094 60.089844 161.621094 60.011719 161.691406 C 59.324219 162.28125 58.640625 162.882812 57.945312 163.472656 C 57.5625 163.796875 57.160156 164.101562 56.761719 164.410156 C 55.898438 165.082031 55.175781 165.875 54.523438 166.757812 C 53.933594 167.554688 53.492188 168.4375 53.011719 169.296875 C 52.683594 169.886719 52.355469 170.480469 52.035156 171.078125 C 51.460938 172.152344 50.769531 173.160156 50.066406 174.15625 C 49.644531 174.757812 49.28125 175.402344 48.867188 176.007812 C 48.398438 176.695312 47.90625 177.367188 47.414062 178.039062 C 46.738281 178.960938 46.0625 179.878906 45.371094 180.789062 C 44.835938 181.5 44.332031 182.238281 43.683594 182.855469 C 43.015625 183.496094 42.25 183.972656 41.359375 184.234375 C 40.742188 184.410156 40.132812 184.59375 39.515625 184.765625 C 39.347656 184.8125 39.175781 184.847656 39.003906 184.871094 C 38.757812 184.902344 38.589844 184.71875 38.652344 184.476562 C 38.695312 184.3125 38.765625 184.144531 38.859375 184 C 39.328125 183.265625 39.6875 182.472656 40.050781 181.679688 C 40.746094 180.167969 41.421875 178.644531 42.257812 177.199219 C 42.539062 176.71875 42.777344 176.203125 43.058594 175.71875 C 43.308594 175.285156 43.574219 174.855469 43.871094 174.449219 C 44.421875 173.675781 45.023438 172.941406 45.558594 172.160156 C 46.390625 170.949219 47.417969 169.917969 48.542969 169.003906 C 49.582031 168.167969 50.675781 167.394531 51.886719 166.804688 C 51.972656 166.761719 52.054688 166.710938 52.136719 166.660156 C 52.726562 166.277344 53.355469 165.984375 54.011719 165.738281 C 54.511719 165.550781 54.929688 165.246094 55.324219 164.898438 C 55.527344 164.71875 55.730469 164.539062 55.945312 164.375 C 57.78125 162.980469 59.550781 161.496094 61.183594 159.871094 C 61.539062 159.519531 61.820312 159.089844 62.140625 158.703125 C 62.261719 158.554688 62.375 158.386719 62.523438 158.269531 C 62.859375 158.011719 63.035156 157.648438 63.214844 157.28125 C 63.566406 156.546875 63.921875 155.820312 64.285156 155.09375 C 64.378906 154.902344 64.496094 154.71875 64.621094 154.550781 C 65.253906 153.695312 65.902344 152.851562 66.621094 152.0625 C 66.957031 151.695312 67.277344 151.300781 67.5625 150.886719 C 68.125 150.070312 68.71875 149.285156 69.457031 148.621094 C 69.917969 148.203125 70.277344 147.695312 70.660156 147.207031 C 71.277344 146.410156 71.894531 145.613281 72.507812 144.820312 C 72.546875 144.773438 72.585938 144.730469 72.613281 144.679688 C 73.5 143.175781 74.613281 141.828125 75.691406 140.460938 C 75.757812 140.375 75.863281 140.300781 75.816406 140.125 C 75.714844 140.148438 75.605469 140.164062 75.507812 140.207031 C 75.035156 140.425781 74.566406 140.660156 74.089844 140.878906 C 72.679688 141.527344 71.3125 142.261719 70.003906 143.089844 C 68.855469 143.816406 67.777344 144.640625 66.785156 145.570312 C 66.207031 146.117188 65.617188 146.648438 65.011719 147.164062 C 64.621094 147.492188 64.273438 147.847656 63.964844 148.25 C 63.378906 149.015625 62.785156 149.78125 62.195312 150.546875 C 61.09375 151.984375 59.84375 153.269531 58.476562 154.457031 C 57.523438 155.285156 56.507812 156.023438 55.40625 156.644531 C 54.476562 157.167969 53.570312 157.730469 52.644531 158.257812 C 51.855469 158.710938 51.035156 159.101562 50.171875 159.402344 C 49.21875 159.730469 48.277344 160.097656 47.335938 160.445312 C 47.136719 160.519531 46.933594 160.597656 46.726562 160.628906 C 46.632812 160.644531 46.496094 160.578125 46.425781 160.503906 C 46.347656 160.417969 46.363281 160.285156 46.4375 160.183594 C 46.480469 160.117188 46.519531 160.050781 46.570312 159.992188 C 46.921875 159.617188 47.121094 159.152344 47.328125 158.695312 C 47.53125 158.253906 47.707031 157.804688 47.890625 157.355469 C 48.464844 155.972656 49.230469 154.703125 50.117188 153.496094 C 51.007812 152.28125 52.117188 151.285156 53.179688 150.242188 C 53.589844 149.832031 54.015625 149.433594 54.429688 149.027344 C 55.523438 147.960938 56.789062 147.148438 58.136719 146.445312 C 59.0625 145.960938 59.996094 145.484375 60.996094 145.160156 C 61.457031 145.011719 61.917969 144.863281 62.378906 144.707031 C 63.523438 144.324219 64.605469 143.816406 65.585938 143.101562 C 66.269531 142.605469 67.058594 142.335938 67.875 142.148438 C 68.628906 141.976562 69.402344 141.871094 70.125 141.574219 C 70.375 141.472656 70.632812 141.378906 70.867188 141.242188 C 71.332031 140.964844 71.789062 140.667969 72.242188 140.378906 C 72.949219 139.925781 73.691406 139.5625 74.519531 139.382812 C 74.820312 139.320312 75.109375 139.191406 75.394531 139.066406 C 76.332031 138.644531 77.210938 138.109375 78.078125 137.558594 C 78.175781 137.5 78.257812 137.414062 78.351562 137.34375 C 78.582031 137.167969 78.796875 136.96875 79.046875 136.828125 C 79.457031 136.589844 79.800781 136.296875 80.082031 135.910156 C 80.285156 135.628906 80.511719 135.359375 80.734375 135.097656 C 80.820312 134.996094 80.914062 134.875 81.03125 134.828125 C 81.308594 134.707031 81.496094 134.492188 81.695312 134.28125 C 82.105469 133.84375 82.546875 133.4375 82.964844 133.007812 C 83.152344 132.8125 83.328125 132.605469 83.476562 132.378906 C 83.578125 132.234375 83.671875 132.097656 83.832031 132.011719 C 84.246094 131.78125 84.558594 131.4375 84.863281 131.085938 C 85.28125 130.601562 85.730469 130.136719 86.089844 129.613281 C 86.347656 129.226562 86.71875 128.996094 87.035156 128.691406 C 87.484375 128.261719 87.914062 127.816406 88.375 127.402344 C 88.804688 127.011719 89.253906 126.644531 89.710938 126.285156 C 90.183594 125.910156 90.667969 125.558594 91.152344 125.203125 C 91.683594 124.808594 92.191406 124.394531 92.613281 123.882812 C 92.757812 123.707031 92.953125 123.558594 93.148438 123.441406 C 93.402344 123.28125 93.6875 123.234375 93.980469 123.367188 C 94.203125 123.46875 94.367188 123.625 94.414062 123.875 C 94.4375 123.988281 94.457031 124.101562 94.476562 124.21875 C 94.527344 124.5625 94.394531 124.824219 94.121094 125.023438 C 94.042969 125.082031 93.957031 125.128906 93.875 125.175781 C 92.941406 125.695312 92.007812 126.203125 91.078125 126.730469 C 90.84375 126.863281 90.628906 127.027344 90.425781 127.210938 C 89.847656 127.734375 89.207031 128.164062 88.539062 128.558594 C 88.273438 128.714844 88.023438 128.90625 87.804688 129.117188 C 86.96875 129.925781 86.140625 130.742188 85.320312 131.566406 C 84.921875 131.964844 84.546875 132.378906 84.160156 132.792969 C 84.003906 132.960938 83.871094 133.160156 83.699219 133.3125 C 82.925781 134.011719 82.492188 134.917969 82.125 135.855469 C 81.984375 136.210938 81.925781 136.605469 81.894531 136.992188 C 81.804688 138.152344 81.589844 139.292969 81.402344 140.441406 C 81.390625 140.5 81.378906 140.554688 81.363281 140.609375 C 80.988281 141.738281 80.847656 142.914062 80.660156 144.078125 C 80.484375 145.191406 80.277344 146.292969 80.050781 147.394531 C 79.828125 148.472656 79.65625 149.566406 79.4375 150.644531 C 79.207031 151.804688 79.042969 152.972656 78.722656 154.113281 C 78.480469 154.988281 78.300781 155.886719 78.054688 156.761719 C 77.859375 157.449219 77.609375 158.121094 77.375 158.796875 C 77.210938 159.273438 77.039062 159.746094 76.863281 160.21875 C 76.519531 161.144531 76.207031 162.085938 75.820312 162.996094 C 75.210938 164.40625 74.824219 165.890625 74.28125 167.320312 C 74.070312 167.863281 73.820312 168.386719 73.597656 168.921875 C 73.179688 169.941406 72.617188 170.898438 72.136719 171.890625 C 71.921875 172.339844 71.722656 172.804688 71.546875 173.277344 C 71.308594 173.921875 71.328125 174.566406 71.605469 175.203125 C 71.71875 175.46875 71.828125 175.742188 71.917969 176.019531 C 72.011719 176.296875 72.046875 176.589844 71.957031 176.875 C 71.917969 177 71.847656 177.125 71.761719 177.222656 C 71.597656 177.40625 71.355469 177.414062 71.199219 177.230469 C 71.046875 177.058594 70.910156 176.867188 70.796875 176.667969 C 70.484375 176.125 70.242188 175.550781 70.09375 174.949219 C 69.804688 173.800781 69.589844 172.636719 69.636719 171.445312 C 69.703125 169.722656 69.667969 168 69.601562 166.277344 C 69.546875 164.902344 69.660156 163.53125 69.929688 162.179688 C 70.050781 161.574219 70.152344 160.960938 70.253906 160.351562 C 70.445312 159.234375 70.84375 158.1875 71.359375 157.183594 C 71.625 156.664062 71.832031 156.125 71.996094 155.566406 C 72.285156 154.578125 72.609375 153.601562 73.117188 152.703125 C 73.519531 151.992188 74.035156 151.359375 74.5625 150.746094 C 75.535156 149.613281 76.507812 148.484375 77.382812 147.269531 C 77.832031 146.640625 78.304688 146.023438 78.621094 145.3125 C 78.714844 145.101562 78.824219 144.890625 78.890625 144.667969 C 79.046875 144.148438 79.179688 143.625 79.324219 143.101562 C 79.449219 142.652344 79.554688 142.199219 79.796875 141.796875 C 79.886719 141.648438 79.941406 141.476562 79.996094 141.3125 C 80.214844 140.609375 80.4375 139.90625 80.640625 139.199219 C 80.746094 138.828125 80.804688 138.441406 80.894531 138.066406 C 81.007812 137.597656 81.136719 137.128906 81.253906 136.660156 C 81.300781 136.472656 81.332031 136.28125 81.359375 136.089844 C 81.367188 136.035156 81.335938 135.980469 81.3125 135.894531 C 81.234375 135.917969 81.152344 135.921875 81.101562 135.960938 C 80.992188 136.042969 80.898438 136.140625 80.800781 136.234375 C 79.929688 137.085938 79.054688 137.9375 78.246094 138.855469 C 77.542969 139.652344 76.835938 140.453125 76.167969 141.28125 C 74.949219 142.785156 73.753906 144.308594 72.554688 145.824219 C 71.664062 146.949219 70.773438 148.070312 69.894531 149.203125 C 68.898438 150.488281 67.921875 151.789062 66.929688 153.074219 C 66.648438 153.4375 66.457031 153.832031 66.371094 154.273438 C 66.148438 155.402344 65.75 156.476562 65.40625 157.5625 C 65.164062 158.320312 64.875 159.066406 64.652344 159.824219 C 64.453125 160.511719 64.324219 161.21875 64.144531 161.910156 C 63.972656 162.574219 63.949219 163.25 63.925781 163.925781 C 63.914062 164.285156 63.96875 164.621094 64.117188 164.945312 C 64.53125 165.867188 64.800781 166.835938 65.105469 167.792969 C 65.222656 168.15625 65.226562 168.558594 65.25 168.945312 C 65.277344 169.308594 65.265625 169.679688 65.277344 170.046875 C 65.289062 170.433594 65.328125 170.816406 65.339844 171.203125 C 65.359375 171.921875 65.375 172.636719 65.371094 173.351562 C 65.367188 173.835938 65.320312 174.320312 65.300781 174.804688 C 65.265625 175.601562 65.355469 176.390625 65.496094 177.171875 C 65.6875 178.273438 65.660156 179.363281 65.4375 180.460938 C 65.242188 181.410156 65.03125 182.351562 64.785156 183.289062 C 64.605469 183.984375 64.429688 184.679688 64.1875 185.355469 C 63.777344 186.503906 63.289062 187.621094 62.632812 188.65625 C 62.148438 189.429688 61.699219 190.21875 61.316406 191.042969 C 61.183594 191.324219 61.089844 191.621094 60.976562 191.910156 C 60.742188 192.503906 60.515625 193.101562 60.261719 193.6875 C 60.179688 193.878906 60.046875 194.054688 59.910156 194.210938 C 59.773438 194.367188 59.550781 194.332031 59.480469 194.148438 C 59.378906 193.894531 59.261719 193.667969 59.089844 193.453125 C 58.980469 193.316406 58.96875 193.089844 58.96875 192.898438 C 58.949219 191.324219 59.148438 189.773438 59.550781 188.246094 C 59.855469 187.105469 60.113281 185.957031 60.246094 184.773438 C 60.386719 183.527344 60.507812 182.277344 60.558594 181.019531 C 60.574219 180.652344 60.582031 180.28125 60.566406 179.914062 C 60.527344 179.019531 60.632812 178.136719 60.785156 177.257812 C 60.949219 176.304688 61.113281 175.347656 61.300781 174.398438 C 61.394531 173.925781 61.519531 173.453125 61.664062 172.996094 C 61.925781 172.164062 62.207031 171.335938 62.484375 170.511719 C 62.667969 169.976562 62.757812 169.421875 62.808594 168.863281 C 62.886719 167.957031 62.953125 167.046875 63 166.140625 C 63.070312 164.859375 63.285156 163.601562 63.511719 162.34375 C 63.84375 160.460938 64.445312 158.664062 65.101562 156.882812 C 65.261719 156.445312 65.371094 155.992188 65.496094 155.546875 C 65.523438 155.464844 65.507812 155.371094 65.519531 155.191406 C 65.371094 155.316406 65.273438 155.375 65.210938 155.460938 C 64.988281 155.78125 64.777344 156.101562 64.570312 156.429688 C 63.894531 157.515625 63.210938 158.597656 62.5625 159.695312 C 62.0625 160.546875 61.605469 161.421875 61.128906 162.285156 C 60.40625 163.609375 59.664062 164.925781 58.964844 166.265625 C 58.382812 167.382812 57.859375 168.523438 57.308594 169.65625 C 57.167969 169.953125 57.03125 170.25 56.894531 170.550781 C 56.3125 171.820312 55.800781 173.117188 55.367188 174.445312 C 55.152344 175.105469 54.882812 175.753906 54.667969 176.414062 C 54.472656 177 54.316406 177.601562 54.148438 178.199219 C 53.894531 179.113281 53.640625 180.027344 53.390625 180.945312 C 53.222656 181.5625 53.058594 182.179688 52.902344 182.800781 C 52.769531 183.328125 52.660156 183.855469 52.527344 184.382812 C 52.371094 185.003906 52.292969 185.636719 52.265625 186.277344 C 52.25 186.527344 52.21875 186.777344 52.199219 187.027344 C 52.179688 187.300781 52.191406 187.558594 52.339844 187.8125 C 52.433594 187.96875 52.457031 188.179688 52.464844 188.367188 C 52.496094 189.003906 52.6875 189.578125 53.066406 190.09375 C 53.515625 190.703125 53.898438 191.355469 54.234375 192.035156 C 54.441406 192.449219 54.675781 192.851562 54.878906 193.269531 C 55.015625 193.550781 55.136719 193.835938 55.234375 194.128906 C 55.433594 194.738281 55.609375 195.351562 55.800781 195.960938 C 55.988281 196.542969 55.996094 197.144531 56.03125 197.742188 C 56.070312 198.535156 56.058594 199.324219 55.960938 200.117188 C 55.835938 201.097656 55.777344 202.082031 55.664062 203.066406 C 55.476562 204.660156 55.273438 206.25 55.078125 207.847656 C 55 208.5 54.925781 209.152344 54.855469 209.808594 C 54.734375 210.929688 54.464844 212.015625 54.140625 213.09375 C 53.832031 214.128906 53.59375 215.191406 53.328125 216.242188 C 53.222656 216.652344 53.136719 217.070312 53.046875 217.488281 C 52.855469 218.402344 52.84375 219.332031 52.789062 220.261719 C 52.78125 220.394531 52.789062 220.535156 52.757812 220.660156 C 52.726562 220.78125 52.609375 220.859375 52.488281 220.835938 C 52.40625 220.820312 52.296875 220.75 52.273438 220.679688 C 52.21875 220.515625 52.1875 220.339844 52.1875 220.167969 C 52.183594 219.660156 52.078125 219.171875 51.960938 218.679688 C 51.824219 218.09375 51.722656 217.5 51.648438 216.90625 C 51.554688 216.175781 51.429688 215.453125 51.152344 214.765625 C 50.855469 214.03125 50.765625 213.269531 50.828125 212.484375 C 50.871094 211.964844 50.90625 211.441406 50.964844 210.921875 C 51.109375 209.664062 51.0625 208.410156 50.941406 207.15625 C 50.835938 206.054688 50.792969 204.953125 51.007812 203.855469 C 51.089844 203.417969 51.175781 202.980469 51.273438 202.546875 C 51.550781 201.335938 51.640625 200.097656 51.777344 198.871094 C 51.800781 198.640625 51.796875 198.40625 51.792969 198.171875 C 51.773438 196.621094 51.886719 195.078125 52.015625 193.535156 C 52.058594 192.996094 52.101562 192.457031 52.148438 191.914062 C 52.179688 191.519531 52.136719 191.136719 52.011719 190.765625 C 51.636719 189.644531 51.550781 188.496094 51.660156 187.324219 C 51.675781 187.132812 51.695312 186.941406 51.703125 186.746094 C 51.707031 186.675781 51.683594 186.601562 51.671875 186.542969 C 51.515625 186.5 51.472656 186.601562 51.4375 186.6875 C 51.265625 187.097656 51.109375 187.511719 50.9375 187.925781 C 50.496094 189 50.058594 190.078125 49.597656 191.140625 C 49.289062 191.851562 48.929688 192.539062 48.617188 193.25 C 48.183594 194.242188 47.734375 195.234375 47.363281 196.25 C 46.960938 197.363281 46.628906 198.5 46.289062 199.628906 C 45.847656 201.078125 45.582031 202.566406 45.484375 204.074219 C 45.390625 205.523438 45.285156 206.972656 45.253906 208.421875 C 45.234375 209.351562 45.3125 210.28125 45.386719 211.207031 C 45.507812 212.792969 45.527344 214.375 45.257812 215.953125 C 45.09375 216.894531 45.082031 217.839844 45.265625 218.785156 C 45.554688 220.292969 45.597656 221.824219 45.691406 223.347656 C 45.742188 224.199219 45.839844 225.046875 46.035156 225.878906 C 46.105469 226.167969 46.214844 226.417969 46.441406 226.628906 C 46.621094 226.800781 46.761719 227.015625 46.902344 227.222656 C 47.132812 227.5625 47.40625 227.859375 47.738281 228.105469 C 48.28125 228.511719 48.808594 228.9375 49.339844 229.355469 C 49.75 229.671875 50.023438 230.09375 50.289062 230.523438 C 50.621094 231.066406 50.9375 231.625 51.25 232.179688 C 51.5 232.621094 51.707031 233.078125 51.855469 233.5625 C 52.222656 234.765625 52.640625 235.953125 53.195312 237.089844 C 53.511719 237.738281 53.691406 238.4375 53.816406 239.144531 C 54.089844 240.628906 54.351562 242.117188 54.597656 243.609375 C 54.683594 244.101562 54.726562 244.605469 54.761719 245.109375 C 54.816406 245.847656 54.945312 246.566406 55.238281 247.253906 C 55.269531 247.324219 55.296875 247.402344 55.304688 247.476562 C 55.316406 247.601562 55.265625 247.703125 55.148438 247.761719 C 55.027344 247.828125 54.910156 247.789062 54.84375 247.6875 C 54.722656 247.515625 54.617188 247.328125 54.519531 247.140625 C 54.238281 246.585938 53.972656 246.027344 53.6875 245.476562 C 53.417969 244.957031 53.09375 244.476562 52.636719 244.101562 C 52.238281 243.777344 51.988281 243.335938 51.699219 242.921875 C 51.535156 242.683594 51.351562 242.457031 51.183594 242.226562 C 51 241.976562 50.816406 241.722656 50.640625 241.472656 C 50.445312 241.199219 50.34375 240.886719 50.316406 240.550781 C 50.261719 239.851562 49.976562 239.246094 49.597656 238.671875 C 49.167969 238.015625 48.863281 237.3125 48.804688 236.515625 C 48.78125 236.148438 48.675781 235.792969 48.539062 235.445312 C 48.246094 234.6875 47.96875 233.925781 47.78125 233.128906 C 47.574219 232.238281 47.445312 231.339844 47.375 230.433594 C 47.34375 229.988281 47.210938 229.613281 46.945312 229.253906 C 46.421875 228.550781 46.003906 227.792969 45.757812 226.941406 C 45.703125 226.738281 45.589844 226.550781 45.503906 226.355469 C 45.375 226.074219 45.242188 225.792969 45.125 225.507812 C 45.054688 225.324219 45.019531 225.136719 45.183594 224.964844 C 45.308594 224.839844 45.261719 224.671875 45.25 224.523438 C 45.207031 223.847656 45.160156 223.171875 45.113281 222.496094 C 45.09375 222.226562 45.078125 221.953125 45.050781 221.6875 C 45.042969 221.601562 45 221.515625 44.972656 221.421875 C 44.917969 221.453125 44.890625 221.460938 44.890625 221.476562 C 44.855469 221.683594 44.808594 221.890625 44.789062 222.101562 C 44.695312 223.355469 44.585938 224.609375 44.527344 225.867188 C 44.476562 226.851562 44.503906 227.839844 44.476562 228.828125 C 44.414062 231.09375 44.347656 233.355469 44.257812 235.621094 C 44.230469 236.375 44.128906 237.125 44.058594 237.875 C 43.933594 239.167969 43.886719 240.464844 43.96875 241.765625 C 43.976562 241.898438 43.980469 242.050781 44.042969 242.160156 C 44.320312 242.621094 44.371094 243.148438 44.492188 243.65625 C 44.570312 244.011719 44.730469 244.289062 44.972656 244.558594 C 45.617188 245.265625 46.132812 246.058594 46.410156 246.988281 C 46.53125 247.394531 46.679688 247.796875 46.8125 248.203125 C 46.957031 248.628906 47.164062 249.019531 47.445312 249.375 C 48.359375 250.527344 48.679688 251.851562 48.566406 253.296875 C 48.535156 253.664062 48.484375 254.03125 48.476562 254.398438 C 48.453125 255.679688 48.585938 256.949219 48.824219 258.207031 C 48.859375 258.394531 48.929688 258.582031 48.855469 258.773438 C 48.574219 258.882812 48.46875 258.871094 48.371094 258.6875 C 48.308594 258.570312 48.261719 258.4375 48.238281 258.304688 C 48.167969 257.914062 48 257.570312 47.777344 257.25 C 47.472656 256.804688 47.160156 256.359375 46.871094 255.90625 C 46.769531 255.746094 46.71875 255.550781 46.652344 255.371094 C 46.53125 255.042969 46.414062 254.71875 46.292969 254.390625 C 46.269531 254.316406 46.226562 254.246094 46.222656 254.171875 C 46.207031 253.796875 46.046875 253.460938 45.925781 253.113281 C 45.238281 251.152344 44.664062 249.164062 44.269531 247.125 C 44.0625 246.078125 43.8125 245.039062 43.640625 243.992188 C 43.410156 242.535156 43.324219 241.066406 43.40625 239.589844 C 43.480469 238.296875 43.601562 237.003906 43.699219 235.714844 C 43.722656 235.386719 43.738281 235.058594 43.75 234.730469 C 43.753906 234.640625 43.71875 234.550781 43.691406 234.4375 C 43.476562 234.667969 43.472656 234.667969 43.429688 234.875 C 43.332031 235.347656 43.238281 235.824219 43.140625 236.300781 C 43.113281 236.449219 43.089844 236.605469 43.050781 236.753906 C 42.796875 237.667969 42.628906 238.601562 42.476562 239.539062 C 42.285156 240.722656 42.078125 241.910156 41.628906 243.035156 C 41.324219 243.808594 40.992188 244.570312 40.691406 245.351562 C 40.441406 246 40.1875 246.652344 40.003906 247.324219 C 39.660156 248.585938 39.007812 249.664062 38.230469 250.695312 C 37.5625 251.578125 36.847656 252.414062 36.121094 253.246094 C 35.609375 253.832031 35.304688 254.507812 35.105469 255.246094 C 34.992188 255.675781 34.851562 256.101562 34.714844 256.523438 C 34.671875 256.648438 34.605469 256.769531 34.527344 256.878906 C 34.457031 256.980469 34.335938 257.039062 34.222656 256.976562 C 34.148438 256.9375 34.085938 256.84375 34.054688 256.761719 C 34.027344 256.675781 34.042969 256.570312 34.042969 256.476562 C 34.03125 255.8125 34.113281 255.160156 34.242188 254.511719 C 34.492188 253.261719 34.773438 252.015625 35.050781 250.769531 C 35.152344 250.3125 35.246094 249.855469 35.398438 249.417969 C 35.613281 248.816406 35.84375 248.21875 36.121094 247.644531 C 36.558594 246.738281 37.15625 245.917969 37.6875 245.066406 C 38.175781 244.273438 38.761719 243.550781 39.3125 242.804688 C 39.542969 242.496094 39.714844 242.144531 39.910156 241.8125 C 40.070312 241.546875 40.238281 241.289062 40.394531 241.019531 C 40.65625 240.566406 40.886719 240.101562 41.1875 239.667969 C 41.304688 239.496094 41.386719 239.292969 41.453125 239.089844 C 41.734375 238.265625 42.007812 237.4375 42.421875 236.664062 C 42.652344 236.234375 42.738281 235.753906 42.84375 235.28125 C 42.914062 234.960938 42.976562 234.632812 43.046875 234.3125 C 43.214844 233.558594 43.394531 232.804688 43.546875 232.046875 C 43.589844 231.84375 43.589844 231.621094 43.570312 231.414062 C 43.519531 230.875 43.445312 230.335938 43.382812 229.796875 C 43.316406 229.257812 43.3125 228.71875 43.433594 228.179688 C 43.5 227.878906 43.515625 227.566406 43.527344 227.257812 C 43.542969 226.8125 43.597656 226.378906 43.691406 225.9375 C 43.804688 225.367188 43.898438 224.796875 43.972656 224.21875 C 44.0625 223.488281 44.140625 222.757812 44.195312 222.023438 C 44.234375 221.503906 44.238281 220.980469 44.253906 220.457031 C 44.277344 219.742188 44.3125 219.023438 44.316406 218.308594 C 44.324219 217.382812 44.308594 216.453125 44.296875 215.523438 C 44.296875 215.410156 44.347656 215.238281 44.109375 215.199219 Z M 65.71875 145.730469 C 65.664062 145.730469 65.59375 145.707031 65.554688 145.734375 C 65.199219 145.960938 64.859375 146.207031 64.691406 146.621094 C 64.570312 146.671875 64.441406 146.710938 64.332031 146.78125 C 63.429688 147.34375 62.519531 147.890625 61.488281 148.203125 C 61.066406 148.332031 60.648438 148.527344 60.28125 148.765625 C 59.679688 149.15625 59.128906 149.613281 58.675781 150.183594 C 58.375 150.5625 58.066406 150.933594 57.761719 151.308594 C 56.953125 152.304688 55.976562 153.128906 54.953125 153.894531 C 53.589844 154.917969 52.269531 155.992188 51.011719 157.136719 C 50.210938 157.867188 49.414062 158.597656 48.519531 159.21875 C 48.484375 159.242188 48.476562 159.308594 48.441406 159.378906 C 48.527344 159.375 48.585938 159.386719 48.632812 159.371094 C 49.574219 159.015625 50.554688 158.757812 51.441406 158.277344 C 52.59375 157.648438 53.730469 156.984375 54.875 156.332031 C 55.933594 155.726562 56.9375 155.039062 57.875 154.253906 C 58.855469 153.429688 59.78125 152.554688 60.625 151.59375 C 61.273438 150.847656 61.867188 150.0625 62.476562 149.285156 C 63.132812 148.449219 63.753906 147.582031 64.523438 146.84375 C 64.59375 146.78125 64.632812 146.6875 64.683594 146.605469 C 65.109375 146.402344 65.484375 146.144531 65.710938 145.714844 C 65.777344 145.683594 65.84375 145.65625 65.902344 145.613281 C 65.917969 145.605469 65.902344 145.554688 65.902344 145.523438 C 65.871094 145.527344 65.816406 145.519531 65.804688 145.539062 C 65.769531 145.597656 65.746094 145.667969 65.71875 145.734375 Z M 80.257812 142.421875 C 80.199219 142.460938 80.128906 142.484375 80.117188 142.523438 C 80.003906 142.914062 79.859375 143.300781 79.8125 143.699219 C 79.777344 143.96875 79.734375 144.234375 79.660156 144.488281 C 79.480469 145.082031 79.328125 145.683594 79.109375 146.265625 C 78.910156 146.808594 78.726562 147.359375 78.441406 147.871094 C 78.253906 148.207031 78.125 148.574219 77.957031 148.921875 C 77.859375 149.132812 77.765625 149.347656 77.628906 149.53125 C 77.242188 150.046875 76.96875 150.621094 76.714844 151.210938 C 76.328125 152.097656 76.007812 153.011719 75.527344 153.855469 C 75.121094 154.566406 74.847656 155.332031 74.675781 156.132812 C 74.582031 156.566406 74.464844 156.996094 74.335938 157.421875 C 74.003906 158.492188 73.589844 159.542969 73.40625 160.660156 C 73.390625 160.753906 73.359375 160.847656 73.328125 160.941406 C 73 161.992188 72.675781 163.046875 72.234375 164.066406 C 71.972656 164.667969 71.742188 165.285156 71.691406 165.957031 C 71.640625 166.632812 71.554688 167.304688 71.339844 167.953125 C 71.308594 168.042969 71.304688 168.144531 71.285156 168.238281 C 71.167969 168.867188 71.09375 169.5 71.085938 170.140625 C 71.074219 170.855469 71.039062 171.570312 71.015625 172.285156 C 71.011719 172.382812 71.019531 172.480469 71.167969 172.535156 C 71.382812 172.351562 71.464844 172.066406 71.589844 171.816406 C 71.757812 171.46875 71.90625 171.109375 72.089844 170.769531 C 73.058594 168.976562 73.828125 167.097656 74.460938 165.160156 C 74.695312 164.445312 74.949219 163.730469 75.214844 163.027344 C 75.617188 161.957031 76.066406 160.902344 76.441406 159.824219 C 76.886719 158.566406 77.296875 157.292969 77.6875 156.011719 C 77.941406 155.179688 78.132812 154.328125 78.347656 153.484375 C 78.433594 153.144531 78.503906 152.804688 78.570312 152.460938 C 78.734375 151.585938 78.921875 150.714844 79.042969 149.832031 C 79.191406 148.71875 79.492188 147.636719 79.679688 146.527344 C 79.878906 145.324219 80.105469 144.128906 80.3125 142.929688 C 80.34375 142.765625 80.382812 142.59375 80.257812 142.421875 Z M 47.960938 158.800781 C 48.300781 158.785156 48.46875 158.613281 48.648438 158.480469 C 49.378906 157.933594 50.046875 157.316406 50.71875 156.703125 C 51.921875 155.605469 53.175781 154.570312 54.480469 153.597656 C 55.792969 152.621094 56.976562 151.53125 57.964844 150.210938 C 58.898438 148.960938 60.105469 148.03125 61.632812 147.574219 C 62.722656 147.246094 63.671875 146.644531 64.523438 145.894531 C 65.203125 145.292969 65.90625 144.714844 66.644531 144.179688 C 67.128906 143.828125 67.578125 143.425781 68.035156 143.039062 C 68.117188 142.96875 68.226562 142.890625 68.144531 142.75 C 67.945312 142.671875 67.761719 142.746094 67.574219 142.796875 C 66.933594 142.976562 66.34375 143.25 65.796875 143.632812 C 65.429688 143.882812 65.046875 144.113281 64.660156 144.335938 C 63.730469 144.871094 62.703125 145.175781 61.699219 145.527344 C 61.296875 145.671875 60.894531 145.800781 60.492188 145.949219 C 59.726562 146.226562 59.007812 146.613281 58.289062 146.996094 C 57.019531 147.671875 55.816406 148.445312 54.785156 149.460938 C 53.945312 150.289062 53.101562 151.117188 52.246094 151.929688 C 51.144531 152.980469 50.238281 154.179688 49.453125 155.476562 C 48.898438 156.386719 48.4375 157.351562 48.066406 158.351562 C 48.019531 158.472656 48.003906 158.601562 47.957031 158.800781 Z M 63.800781 165.992188 C 63.773438 166.132812 63.738281 166.238281 63.730469 166.347656 C 63.675781 167.140625 63.714844 167.929688 63.820312 168.71875 C 63.902344 169.351562 64 169.984375 64.082031 170.617188 C 64.148438 171.140625 64.140625 171.660156 63.984375 172.167969 C 63.832031 172.648438 63.667969 173.125 63.515625 173.605469 C 63.332031 174.195312 63.097656 174.777344 62.984375 175.382812 C 62.828125 176.199219 62.65625 177.011719 62.402344 177.808594 C 62.207031 178.417969 62.070312 179.042969 62.097656 179.6875 C 62.132812 180.554688 61.9375 181.375 61.699219 182.199219 C 61.40625 183.199219 61.140625 184.214844 60.863281 185.21875 C 60.835938 185.3125 60.824219 185.410156 60.8125 185.503906 C 60.65625 186.636719 60.496094 187.765625 60.15625 188.863281 C 60.109375 189.007812 60.089844 189.164062 60.082031 189.320312 C 60.0625 189.886719 59.929688 190.433594 59.734375 190.960938 C 59.511719 191.550781 59.5625 192.140625 59.730469 192.730469 C 59.75 192.808594 59.824219 192.875 59.898438 192.980469 C 59.972656 192.875 60.03125 192.824219 60.054688 192.757812 C 60.277344 192.222656 60.492188 191.683594 60.707031 191.144531 C 60.761719 191 60.804688 190.847656 60.871094 190.707031 C 61.238281 189.917969 61.679688 189.167969 62.144531 188.433594 C 62.769531 187.449219 63.269531 186.398438 63.644531 185.296875 C 63.828125 184.75 63.957031 184.179688 64.132812 183.625 C 64.46875 182.550781 64.703125 181.453125 64.917969 180.351562 C 65.121094 179.335938 65.179688 178.320312 64.96875 177.296875 C 64.769531 176.324219 64.726562 175.34375 64.78125 174.351562 C 64.839844 173.328125 64.90625 172.304688 64.804688 171.28125 C 64.769531 170.914062 64.746094 170.546875 64.730469 170.179688 C 64.714844 169.738281 64.71875 169.292969 64.699219 168.847656 C 64.6875 168.578125 64.679688 168.296875 64.605469 168.039062 C 64.414062 167.390625 64.1875 166.75 63.96875 166.113281 C 63.957031 166.070312 63.886719 166.050781 63.796875 165.992188 Z M 25.433594 204.386719 C 25.757812 204.242188 25.855469 204.195312 26.015625 203.984375 C 26.363281 203.527344 26.824219 203.210938 27.28125 202.886719 C 27.628906 202.640625 27.964844 202.378906 28.285156 202.097656 C 28.71875 201.710938 29.121094 201.289062 29.550781 200.902344 C 29.835938 200.640625 30.160156 200.425781 30.445312 200.160156 C 31.023438 199.617188 31.585938 199.0625 32.152344 198.503906 C 33.324219 197.347656 34.542969 196.242188 35.835938 195.222656 C 36.472656 194.71875 37.101562 194.199219 37.699219 193.648438 C 38.984375 192.46875 40.28125 191.304688 41.476562 190.039062 C 41.902344 189.589844 42.347656 189.15625 42.78125 188.71875 C 42.859375 188.640625 42.96875 188.566406 42.863281 188.40625 C 42.542969 188.484375 42.292969 188.703125 42.042969 188.90625 C 41.316406 189.488281 40.5625 190.03125 39.742188 190.476562 C 38.871094 190.945312 38.011719 191.433594 37.226562 192.035156 C 36.050781 192.933594 34.777344 193.664062 33.445312 194.300781 C 32.390625 194.804688 31.453125 195.492188 30.550781 196.230469 C 29.808594 196.835938 29.234375 197.59375 28.699219 198.375 C 27.835938 199.636719 27.046875 200.949219 26.328125 202.296875 C 26.054688 202.808594 25.816406 203.335938 25.574219 203.863281 C 25.511719 203.996094 25.492188 204.152344 25.429688 204.382812 Z M 45.308594 187.082031 C 44.941406 187.09375 44.8125 187.285156 44.664062 187.457031 C 44.398438 187.765625 44.128906 188.070312 43.847656 188.363281 C 43.335938 188.894531 42.8125 189.410156 42.292969 189.929688 C 41.800781 190.425781 41.320312 190.933594 40.820312 191.414062 C 40.113281 192.101562 39.394531 192.78125 38.667969 193.453125 C 38.070312 194.003906 37.472656 194.554688 36.839844 195.070312 C 35.867188 195.871094 34.867188 196.636719 33.953125 197.507812 C 33.253906 198.171875 32.550781 198.839844 31.871094 199.53125 C 31.449219 199.957031 31.027344 200.378906 30.554688 200.757812 C 30.074219 201.144531 29.601562 201.550781 29.164062 201.988281 C 28.679688 202.46875 28.167969 202.90625 27.617188 203.300781 C 27.238281 203.570312 26.851562 203.824219 26.535156 204.175781 C 26.28125 204.464844 25.984375 204.722656 25.710938 204.992188 C 25.492188 205.207031 25.265625 205.425781 25.054688 205.648438 C 25.011719 205.695312 25.011719 205.785156 24.992188 205.863281 C 25.214844 205.917969 25.359375 205.804688 25.5 205.710938 C 26.027344 205.347656 26.550781 204.988281 27.074219 204.617188 C 28.039062 203.933594 28.996094 203.238281 29.964844 202.566406 C 30.585938 202.136719 31.234375 201.75 31.863281 201.324219 C 32.457031 200.921875 33.054688 200.523438 33.613281 200.078125 C 34.429688 199.425781 35.222656 198.738281 36.015625 198.058594 C 36.867188 197.324219 37.691406 196.566406 38.40625 195.691406 C 39.019531 194.941406 39.671875 194.222656 40.367188 193.546875 C 40.898438 193.039062 41.429688 192.53125 41.941406 192 C 42.648438 191.277344 43.242188 190.464844 43.816406 189.636719 C 44.003906 189.367188 44.160156 189.078125 44.328125 188.792969 C 44.597656 188.347656 44.863281 187.898438 45.125 187.449219 C 45.183594 187.355469 45.226562 187.253906 45.3125 187.082031 Z M 70.394531 172.730469 C 70.421875 172.625 70.464844 172.519531 70.46875 172.414062 C 70.511719 171.566406 70.554688 170.714844 70.574219 169.863281 C 70.59375 169.042969 70.75 168.25 70.933594 167.453125 C 71.011719 167.097656 71.113281 166.734375 71.128906 166.371094 C 71.160156 165.542969 71.375 164.761719 71.703125 164.015625 C 72.125 163.050781 72.441406 162.054688 72.757812 161.058594 C 72.835938 160.800781 72.929688 160.542969 72.972656 160.273438 C 73.09375 159.523438 73.339844 158.808594 73.574219 158.089844 C 73.832031 157.300781 74.109375 156.519531 74.269531 155.695312 C 74.375 155.167969 74.550781 154.636719 74.796875 154.160156 C 75.332031 153.148438 75.800781 152.109375 76.234375 151.054688 C 76.480469 150.445312 76.730469 149.832031 77.144531 149.3125 C 77.464844 148.90625 77.578125 148.421875 77.800781 147.832031 C 77.636719 147.953125 77.570312 147.984375 77.527344 148.035156 C 77.328125 148.273438 77.136719 148.519531 76.941406 148.757812 C 76.007812 149.894531 75.074219 151.03125 74.140625 152.171875 C 73.667969 152.746094 73.3125 153.382812 73.09375 154.097656 C 72.957031 154.539062 72.789062 154.976562 72.660156 155.421875 C 72.429688 156.207031 72.097656 156.945312 71.730469 157.671875 C 71.332031 158.472656 70.992188 159.292969 70.855469 160.1875 C 70.753906 160.835938 70.597656 161.476562 70.496094 162.128906 C 70.375 162.910156 70.261719 163.695312 70.191406 164.484375 C 70.109375 165.390625 70.140625 166.300781 70.1875 167.210938 C 70.25 168.351562 70.265625 169.496094 70.210938 170.636719 C 70.179688 171.253906 70.214844 171.875 70.21875 172.492188 C 70.222656 172.589844 70.226562 172.6875 70.390625 172.730469 Z M 52.648438 216.300781 C 52.6875 216.226562 52.742188 216.148438 52.769531 216.0625 C 52.84375 215.84375 52.914062 215.621094 52.96875 215.394531 C 53.179688 214.488281 53.4375 213.597656 53.691406 212.703125 C 54.007812 211.605469 54.277344 210.496094 54.367188 209.347656 C 54.421875 208.65625 54.53125 207.964844 54.613281 207.277344 C 54.777344 205.914062 54.953125 204.550781 55.105469 203.1875 C 55.199219 202.359375 55.261719 201.53125 55.339844 200.703125 C 55.378906 200.300781 55.425781 199.898438 55.472656 199.492188 C 55.5625 198.738281 55.480469 197.984375 55.453125 197.230469 C 55.4375 196.742188 55.339844 196.269531 55.195312 195.804688 C 55.058594 195.363281 54.902344 194.921875 54.773438 194.476562 C 54.621094 193.949219 54.390625 193.460938 54.136719 192.980469 C 53.972656 192.675781 53.808594 192.363281 53.636719 192.0625 C 53.375 191.613281 53.101562 191.164062 52.832031 190.71875 C 52.789062 190.65625 52.71875 190.613281 52.648438 190.699219 C 52.652344 190.738281 52.640625 190.785156 52.660156 190.808594 C 52.875 191.082031 52.917969 191.402344 52.964844 191.730469 C 53.066406 192.421875 53.1875 193.105469 53.320312 193.792969 C 53.515625 194.820312 53.753906 195.839844 53.933594 196.867188 C 54.066406 197.632812 54.125 198.402344 54.046875 199.179688 C 53.988281 199.757812 53.933594 200.335938 53.917969 200.917969 C 53.898438 201.875 53.710938 202.804688 53.484375 203.722656 C 53.285156 204.515625 53.167969 205.320312 53.117188 206.132812 C 53.050781 207.214844 53.023438 208.296875 52.957031 209.378906 C 52.902344 210.226562 52.832031 211.078125 52.722656 211.921875 C 52.632812 212.65625 52.5625 213.378906 52.625 214.121094 C 52.648438 214.40625 52.582031 214.699219 52.554688 214.984375 C 52.523438 215.332031 52.484375 215.679688 52.464844 216.023438 C 52.457031 216.136719 52.480469 216.257812 52.652344 216.308594 Z M 53.386719 167.449219 L 53.304688 167.367188 C 53.238281 167.402344 53.164062 167.421875 53.117188 167.46875 C 52.832031 167.730469 52.550781 167.996094 52.265625 168.257812 C 52.027344 168.480469 51.796875 168.726562 51.535156 168.917969 C 51.015625 169.304688 50.578125 169.761719 50.214844 170.292969 C 50.046875 170.535156 49.859375 170.753906 49.710938 171.003906 C 49.4375 171.457031 49.089844 171.84375 48.703125 172.199219 C 48.140625 172.714844 47.714844 173.332031 47.351562 174 C 47.128906 174.410156 46.914062 174.824219 46.65625 175.210938 C 45.902344 176.339844 45.277344 177.542969 44.605469 178.71875 C 44.277344 179.289062 43.964844 179.867188 43.546875 180.378906 C 43.054688 180.976562 42.535156 181.546875 41.972656 182.085938 C 41.5 182.542969 41.050781 183.023438 40.597656 183.5 C 40.523438 183.578125 40.421875 183.660156 40.511719 183.828125 C 40.585938 183.828125 40.679688 183.835938 40.769531 183.820312 C 42.15625 183.550781 43.203125 182.753906 44.039062 181.664062 C 45.121094 180.253906 46.175781 178.816406 47.234375 177.386719 C 47.714844 176.734375 48.199219 176.085938 48.625 175.386719 C 49.066406 174.660156 49.523438 173.945312 50.042969 173.265625 C 50.40625 172.789062 50.75 172.292969 51.046875 171.773438 C 51.65625 170.71875 52.230469 169.644531 52.8125 168.574219 C 53.011719 168.207031 53.195312 167.828125 53.390625 167.453125 Z M 52.292969 167.371094 C 52.199219 167.351562 52.136719 167.3125 52.101562 167.332031 C 51.941406 167.398438 51.78125 167.472656 51.632812 167.566406 C 51.097656 167.914062 50.582031 168.289062 50.035156 168.617188 C 49.246094 169.09375 48.566406 169.691406 47.917969 170.328125 C 47.558594 170.683594 47.171875 171.015625 46.863281 171.410156 C 45.953125 172.585938 45.066406 173.78125 44.183594 174.980469 C 43.910156 175.355469 43.671875 175.757812 43.449219 176.164062 C 42.96875 177.023438 42.503906 177.890625 42.035156 178.761719 C 41.878906 179.046875 41.738281 179.347656 41.597656 179.640625 C 41.363281 180.148438 41.136719 180.660156 40.902344 181.171875 C 40.65625 181.714844 40.402344 182.257812 40.15625 182.804688 C 40.128906 182.859375 40.148438 182.9375 40.144531 183.039062 C 40.238281 183.003906 40.304688 183 40.335938 182.964844 C 41.265625 182.007812 42.273438 181.125 43.113281 180.082031 C 43.28125 179.871094 43.449219 179.65625 43.585938 179.421875 C 44.171875 178.398438 44.746094 177.367188 45.324219 176.339844 C 45.4375 176.136719 45.542969 175.929688 45.675781 175.738281 C 46.148438 175.074219 46.539062 174.363281 46.933594 173.652344 C 47.34375 172.925781 47.808594 172.238281 48.464844 171.699219 C 48.628906 171.570312 48.761719 171.394531 48.886719 171.226562 C 49.132812 170.902344 49.371094 170.574219 49.601562 170.238281 C 50.039062 169.59375 50.519531 168.992188 51.167969 168.542969 C 51.308594 168.441406 51.453125 168.335938 51.574219 168.210938 C 51.824219 167.953125 52.101562 167.71875 52.289062 167.367188 Z M 54.070312 244.800781 C 54.105469 244.664062 54.15625 244.578125 54.144531 244.5 C 54.089844 244.023438 54.03125 243.542969 53.953125 243.066406 C 53.816406 242.207031 53.65625 241.351562 53.515625 240.492188 C 53.359375 239.535156 53.214844 238.578125 52.851562 237.671875 C 52.683594 237.257812 52.472656 236.867188 52.316406 236.449219 C 52.019531 235.671875 51.75 234.886719 51.472656 234.101562 C 51.289062 233.574219 51.132812 233.03125 50.84375 232.542969 C 50.46875 231.910156 50.101562 231.273438 49.730469 230.640625 C 49.523438 230.285156 49.261719 229.976562 48.941406 229.71875 C 48.625 229.464844 48.308594 229.210938 47.984375 228.96875 C 47.914062 228.914062 47.820312 228.890625 47.660156 228.816406 C 47.789062 229.203125 47.808594 229.539062 47.980469 229.824219 C 48.472656 230.636719 48.808594 231.527344 49.21875 232.382812 C 49.84375 233.699219 50.359375 235.050781 50.734375 236.460938 C 50.945312 237.265625 51.132812 238.078125 51.367188 238.875 C 51.839844 240.476562 52.503906 242.003906 53.210938 243.511719 C 53.421875 243.960938 53.679688 244.390625 54.078125 244.804688 Z M 31.746094 217.949219 C 31.820312 217.894531 31.875 217.871094 31.910156 217.828125 C 32.109375 217.59375 32.304688 217.355469 32.5 217.113281 C 33.027344 216.445312 33.527344 215.757812 34.082031 215.113281 C 34.949219 214.097656 35.777344 213.050781 36.582031 211.984375 C 36.910156 211.550781 37.234375 211.117188 37.507812 210.652344 C 38.03125 209.75 38.53125 208.832031 39.019531 207.910156 C 39.398438 207.191406 39.734375 206.449219 40.089844 205.714844 C 40.234375 205.421875 40.375 205.125 40.511719 204.828125 C 40.542969 204.757812 40.542969 204.675781 40.410156 204.644531 C 40.320312 204.75 40.226562 204.871094 40.121094 204.984375 C 39.5625 205.59375 39 206.210938 38.433594 206.820312 C 38.054688 207.230469 37.640625 207.613281 37.285156 208.046875 C 36.285156 209.277344 35.277344 210.5 34.316406 211.765625 C 33.015625 213.476562 32.140625 215.367188 31.695312 217.460938 C 31.667969 217.609375 31.59375 217.761719 31.75 217.945312 Z M 52.617188 193.792969 C 52.589844 193.859375 52.554688 193.910156 52.550781 193.960938 C 52.480469 195.15625 52.390625 196.351562 52.355469 197.550781 C 52.339844 198.207031 52.328125 198.863281 52.273438 199.519531 C 52.160156 200.8125 51.953125 202.089844 51.664062 203.355469 C 51.574219 203.75 51.515625 204.152344 51.460938 204.554688 C 51.34375 205.382812 51.410156 206.21875 51.488281 207.042969 C 51.628906 208.554688 51.648438 210.054688 51.472656 211.5625 C 51.414062 212.042969 51.398438 212.523438 51.371094 213.007812 C 51.335938 213.664062 51.550781 214.265625 51.8125 214.851562 C 51.835938 214.898438 51.898438 214.921875 51.96875 214.976562 C 52.015625 214.828125 52.082031 214.707031 52.089844 214.582031 C 52.105469 214.351562 52.097656 214.121094 52.082031 213.886719 C 52.050781 213.480469 52.046875 213.078125 52.109375 212.671875 C 52.328125 211.160156 52.433594 209.636719 52.519531 208.113281 C 52.53125 207.863281 52.550781 207.609375 52.550781 207.359375 C 52.539062 206.015625 52.699219 204.695312 53.023438 203.394531 C 53.125 202.984375 53.21875 202.566406 53.265625 202.144531 C 53.371094 201.183594 53.457031 200.21875 53.53125 199.253906 C 53.589844 198.476562 53.554688 197.707031 53.410156 196.945312 C 53.246094 196.089844 53.097656 195.230469 52.933594 194.378906 C 52.902344 194.207031 52.832031 194.042969 52.765625 193.882812 C 52.75 193.847656 52.679688 193.832031 52.617188 193.796875 Z M 40.238281 203.710938 C 40.164062 203.738281 40.066406 203.746094 40 203.796875 C 39.71875 204.003906 39.4375 204.210938 39.179688 204.441406 C 38.398438 205.136719 37.640625 205.859375 36.855469 206.546875 C 36.023438 207.273438 35.25 208.058594 34.550781 208.914062 C 33.832031 209.796875 33.125 210.695312 32.460938 211.621094 C 31.851562 212.46875 31.3125 213.371094 30.910156 214.335938 C 30.394531 215.554688 30.113281 216.84375 29.8125 218.125 C 29.652344 218.800781 29.5 219.480469 29.34375 220.160156 C 29.203125 220.761719 29.050781 221.363281 28.910156 221.960938 C 28.882812 222.074219 28.871094 222.191406 28.871094 222.308594 C 28.871094 222.367188 28.910156 222.429688 28.9375 222.511719 C 29.304688 222.109375 29.417969 221.894531 29.511719 221.488281 C 29.550781 221.320312 29.601562 221.148438 29.6875 221.003906 C 30.003906 220.472656 30.34375 219.953125 30.664062 219.425781 C 30.742188 219.296875 30.816406 219.15625 30.855469 219.007812 C 30.945312 218.671875 31.015625 218.328125 31.078125 217.988281 C 31.296875 216.804688 31.597656 215.644531 32.089844 214.542969 C 32.289062 214.101562 32.496094 213.664062 32.726562 213.238281 C 33.109375 212.519531 33.605469 211.878906 34.089844 211.226562 C 35.535156 209.28125 37.058594 207.40625 38.789062 205.710938 C 39.320312 205.195312 39.765625 204.617188 40.175781 204.003906 C 40.226562 203.929688 40.3125 203.859375 40.242188 203.707031 Z M 41.625 218.019531 L 41.523438 217.953125 C 41.441406 218.027344 41.339844 218.089844 41.273438 218.175781 C 40.652344 218.96875 40.027344 219.753906 39.421875 220.5625 C 38.878906 221.289062 38.3125 222.007812 37.835938 222.78125 C 37.15625 223.882812 36.539062 225.023438 35.914062 226.160156 C 35.550781 226.824219 35.25 227.515625 35.128906 228.277344 C 35.066406 228.660156 34.980469 229.035156 34.917969 229.417969 C 34.742188 230.449219 34.554688 231.480469 34.527344 232.53125 C 34.511719 233.089844 34.550781 233.652344 34.570312 234.210938 C 34.574219 234.324219 34.585938 234.453125 34.777344 234.464844 C 34.824219 234.375 34.886719 234.277344 34.917969 234.171875 C 35.105469 233.558594 35.277344 232.945312 35.457031 232.332031 C 35.53125 232.089844 35.589844 231.84375 35.6875 231.613281 C 36.09375 230.664062 36.378906 229.679688 36.613281 228.679688 C 36.695312 228.34375 36.835938 228.019531 36.953125 227.691406 C 37.144531 227.164062 37.359375 226.644531 37.527344 226.109375 C 37.65625 225.699219 37.820312 225.308594 38.035156 224.941406 C 38.300781 224.492188 38.542969 224.027344 38.847656 223.601562 C 39.425781 222.773438 39.792969 221.828125 40.300781 220.960938 C 40.5625 220.511719 40.761719 220.023438 40.984375 219.550781 C 41.175781 219.148438 41.371094 218.746094 41.550781 218.339844 C 41.59375 218.242188 41.597656 218.125 41.621094 218.019531 Z M 43.453125 215.226562 C 43.382812 215.25 43.328125 215.246094 43.3125 215.273438 C 43.054688 215.652344 42.769531 216.019531 42.746094 216.511719 C 42.738281 216.625 42.707031 216.742188 42.667969 216.851562 C 42.296875 217.972656 41.820312 219.050781 41.308594 220.113281 C 40.964844 220.824219 40.652344 221.554688 40.203125 222.210938 C 40.160156 222.273438 40.144531 222.355469 40.109375 222.425781 C 39.976562 222.703125 39.859375 222.992188 39.703125 223.253906 C 39.367188 223.820312 39.007812 224.371094 38.664062 224.929688 C 38.417969 225.324219 38.199219 225.726562 38.058594 226.179688 C 37.875 226.75 37.640625 227.304688 37.4375 227.863281 C 37.3125 228.210938 37.160156 228.550781 37.085938 228.90625 C 36.894531 229.839844 36.59375 230.742188 36.25 231.621094 C 36.054688 232.128906 35.949219 232.660156 35.773438 233.171875 C 35.753906 233.234375 35.738281 233.328125 35.882812 233.363281 C 35.933594 233.308594 36.015625 233.253906 36.0625 233.175781 C 36.195312 232.964844 36.316406 232.742188 36.441406 232.527344 C 37.078125 231.421875 37.699219 230.304688 38.402344 229.242188 C 38.789062 228.664062 39.113281 228.046875 39.433594 227.429688 C 39.917969 226.496094 40.1875 225.480469 40.566406 224.511719 C 40.617188 224.382812 40.644531 224.25 40.675781 224.117188 C 40.957031 222.886719 41.429688 221.722656 41.914062 220.5625 C 42.28125 219.6875 42.667969 218.820312 42.957031 217.921875 C 43.207031 217.152344 43.332031 216.34375 43.503906 215.546875 C 43.523438 215.449219 43.472656 215.335938 43.453125 215.226562 Z M 44.414062 244.902344 C 44.425781 245.082031 44.417969 245.214844 44.449219 245.335938 C 44.75 246.695312 45.042969 248.054688 45.363281 249.410156 C 45.535156 250.125 45.734375 250.835938 45.960938 251.53125 C 46.261719 252.472656 46.589844 253.398438 46.929688 254.324219 C 47.125 254.867188 47.367188 255.402344 47.597656 255.929688 C 47.652344 256.0625 47.753906 256.175781 47.835938 256.296875 C 48.03125 256.199219 47.992188 256.054688 47.988281 255.925781 C 47.976562 255.386719 47.945312 254.84375 47.953125 254.304688 C 47.957031 253.859375 48.011719 253.417969 48.035156 252.972656 C 48.105469 251.746094 47.761719 250.644531 47.007812 249.675781 C 46.691406 249.273438 46.46875 248.828125 46.300781 248.351562 C 46.128906 247.878906 45.984375 247.398438 45.816406 246.921875 C 45.734375 246.6875 45.644531 246.449219 45.519531 246.234375 C 45.339844 245.914062 45.128906 245.609375 44.921875 245.308594 C 44.816406 245.148438 44.714844 244.976562 44.410156 244.898438 Z M 36.128906 252.300781 C 36.292969 252.160156 36.359375 252.121094 36.410156 252.0625 C 37.164062 251.199219 37.871094 250.304688 38.507812 249.359375 C 38.855469 248.84375 39.160156 248.304688 39.339844 247.703125 C 39.457031 247.316406 39.585938 246.925781 39.703125 246.539062 C 40.039062 245.460938 40.492188 244.4375 40.921875 243.398438 C 41.324219 242.425781 41.632812 241.429688 41.792969 240.394531 C 41.8125 240.277344 41.769531 240.148438 41.75 239.964844 C 41.496094 240.148438 41.351562 240.316406 41.414062 240.582031 C 41.476562 240.863281 41.410156 241.125 41.304688 241.375 C 41.152344 241.730469 40.988281 242.082031 40.820312 242.425781 C 40.625 242.824219 40.414062 243.210938 40.214844 243.609375 C 40.039062 243.972656 39.894531 244.359375 39.691406 244.707031 C 39.417969 245.175781 39.113281 245.625 38.804688 246.066406 C 38.511719 246.488281 38.265625 246.917969 38.203125 247.433594 C 38.167969 247.691406 38.078125 247.914062 37.941406 248.132812 C 37.703125 248.507812 37.46875 248.890625 37.277344 249.289062 C 36.945312 249.964844 36.632812 250.652344 36.332031 251.34375 C 36.21875 251.601562 36.160156 251.886719 36.125 252.296875 Z M 61.238281 181.714844 C 61.3125 181.535156 61.371094 181.4375 61.390625 181.328125 C 61.488281 180.894531 61.585938 180.460938 61.574219 180.011719 C 61.554688 179.40625 61.589844 178.808594 61.757812 178.226562 C 61.871094 177.816406 61.984375 177.40625 62.109375 177 C 62.226562 176.609375 62.335938 176.222656 62.382812 175.8125 C 62.484375 174.921875 62.769531 174.078125 63.121094 173.253906 C 63.574219 172.210938 63.726562 171.136719 63.46875 170.019531 C 63.453125 169.957031 63.394531 169.90625 63.316406 169.792969 C 63.246094 169.957031 63.191406 170.050781 63.160156 170.152344 C 62.976562 170.722656 62.8125 171.300781 62.617188 171.867188 C 62.328125 172.691406 62.015625 173.507812 61.882812 174.375 C 61.816406 174.796875 61.707031 175.210938 61.632812 175.628906 C 61.488281 176.46875 61.355469 177.308594 61.21875 178.152344 C 61.042969 179.25 61.160156 180.355469 61.121094 181.457031 C 61.121094 181.519531 61.175781 181.585938 61.238281 181.722656 Z M 48.195312 231.550781 L 48.09375 231.578125 C 48.085938 231.652344 48.066406 231.722656 48.078125 231.792969 C 48.214844 232.671875 48.390625 233.542969 48.722656 234.378906 C 49.039062 235.191406 49.339844 236.007812 49.417969 236.890625 C 49.429688 237.058594 49.5 237.226562 49.558594 237.386719 C 49.703125 237.792969 49.910156 238.160156 50.148438 238.519531 C 50.515625 239.078125 50.777344 239.675781 50.832031 240.351562 C 50.882812 240.941406 51.191406 241.40625 51.582031 241.820312 C 51.628906 241.867188 51.707031 241.878906 51.777344 241.90625 C 51.792969 241.832031 51.8125 241.789062 51.800781 241.757812 C 51.742188 241.574219 51.6875 241.386719 51.613281 241.207031 C 51.164062 240.113281 50.816406 238.988281 50.523438 237.839844 C 50.257812 236.789062 49.945312 235.75 49.605469 234.71875 C 49.273438 233.683594 48.757812 232.722656 48.320312 231.730469 C 48.289062 231.667969 48.238281 231.609375 48.195312 231.550781 Z M 39.476562 243.691406 C 39.335938 243.773438 39.257812 243.796875 39.21875 243.847656 C 39.023438 244.089844 38.824219 244.328125 38.65625 244.582031 C 38.113281 245.40625 37.578125 246.234375 37.058594 247.066406 C 36.8125 247.460938 36.578125 247.867188 36.40625 248.292969 C 35.949219 249.425781 35.617188 250.597656 35.390625 251.796875 C 35.378906 251.863281 35.363281 251.957031 35.496094 251.980469 C 35.664062 251.910156 35.695312 251.734375 35.746094 251.574219 C 36.164062 250.34375 36.648438 249.144531 37.394531 248.070312 C 37.535156 247.863281 37.625 247.632812 37.667969 247.378906 C 37.761719 246.820312 37.992188 246.316406 38.332031 245.855469 C 38.664062 245.402344 39.023438 244.96875 39.257812 244.453125 C 39.351562 244.242188 39.46875 244.042969 39.476562 243.695312 Z M 91.417969 125.796875 C 91.539062 125.773438 91.597656 125.773438 91.644531 125.75 C 92.328125 125.390625 93.003906 125.027344 93.683594 124.664062 C 93.714844 124.644531 93.746094 124.621094 93.777344 124.597656 C 93.957031 124.453125 93.980469 124.191406 93.84375 123.96875 C 93.75 123.808594 93.550781 123.792969 93.335938 123.953125 C 93.167969 124.078125 93.003906 124.222656 92.875 124.386719 C 92.632812 124.691406 92.367188 124.960938 92.042969 125.175781 C 91.867188 125.296875 91.707031 125.433594 91.542969 125.574219 C 91.496094 125.617188 91.476562 125.691406 91.414062 125.796875 Z M 35.382812 252.273438 C 35.242188 252.699219 35.140625 253 35.050781 253.308594 C 35.039062 253.34375 35.085938 253.421875 35.125 253.441406 C 35.164062 253.457031 35.253906 253.433594 35.269531 253.402344 C 35.324219 253.285156 35.386719 253.164062 35.394531 253.035156 C 35.410156 252.832031 35.390625 252.625 35.378906 252.269531 Z M 73.222656 140.546875 C 73.828125 140.46875 73.925781 140.417969 74.25 140.054688 C 73.882812 140.132812 73.558594 140.195312 73.222656 140.546875 Z M 71.082031 175.929688 L 71.242188 176.128906 C 71.265625 176.105469 71.316406 176.070312 71.3125 176.058594 C 71.285156 175.996094 71.246094 175.9375 71.203125 175.882812 C 71.195312 175.875 71.148438 175.902344 71.082031 175.929688 Z M 53.828125 166.589844 C 53.859375 166.578125 53.90625 166.578125 53.925781 166.558594 C 53.9375 166.539062 53.914062 166.496094 53.910156 166.464844 C 53.875 166.472656 53.832031 166.472656 53.8125 166.496094 C 53.800781 166.507812 53.824219 166.554688 53.832031 166.585938 Z M 57.28125 168.226562 L 57.238281 168.214844 L 57.167969 168.429688 L 57.210938 168.445312 Z M 39.632812 184.246094 C 39.71875 184.128906 39.765625 184.089844 39.777344 184.039062 C 39.789062 183.996094 39.761719 183.945312 39.75 183.898438 C 39.703125 183.914062 39.640625 183.917969 39.617188 183.949219 C 39.597656 183.980469 39.621094 184.042969 39.636719 184.246094 Z M 56.851562 169.0625 C 56.882812 169.046875 56.914062 169.035156 56.933594 169.011719 C 56.945312 169 56.941406 168.976562 56.941406 168.957031 L 56.851562 168.953125 Z M 56.707031 169.535156 L 56.742188 169.5 L 56.707031 169.484375 Z M 56.707031 169.535156 " fill-opacity="1" fill-rule="nonzero"/></g></g></g><path stroke-linecap="round" transform="matrix(0.75, 0, 0, 0.75, 119.592001, 252.872033)" fill="none" stroke-linejoin="miter" d="M 0.502331 0.498748 L 48.627335 0.498748 " stroke="#cb6ce6" stroke-width="1" stroke-opacity="1" stroke-miterlimit="4"/><path stroke-linecap="round" transform="matrix(0.75, 0, 0, 0.75, 271.345182, 253.504435)" fill="none" stroke-linejoin="miter" d="M 0.498091 0.499295 L 48.623094 0.499295 " stroke="#cb6ce6" stroke-width="1" stroke-opacity="1" stroke-miterlimit="4"/><g fill="#000000" fill-opacity="1"><g transform="translate(138.000045, 232.941437)"><g><path d="M 3.9375 0.203125 C 3.582031 0.203125 3.304688 0.0625 3.109375 -0.21875 C 2.910156 -0.507812 2.8125 -0.851562 2.8125 -1.25 C 2.863281 -1.90625 3 -2.296875 3.21875 -2.421875 C 3.4375 -2.554688 3.847656 -2.625 4.453125 -2.625 C 5.722656 -2.625 6.664062 -2.851562 7.28125 -3.3125 C 7.894531 -3.769531 8.273438 -4.335938 8.421875 -5.015625 C 8.578125 -5.691406 8.675781 -6.578125 8.71875 -7.671875 L 8.71875 -33.703125 C 8.675781 -34.796875 8.578125 -35.679688 8.421875 -36.359375 C 8.273438 -37.035156 7.894531 -37.601562 7.28125 -38.0625 C 6.664062 -38.519531 5.722656 -38.75 4.453125 -38.75 L 4.0625 -38.75 C 3.625 -38.75 3.316406 -38.828125 3.140625 -38.984375 C 2.972656 -39.140625 2.863281 -39.523438 2.8125 -40.140625 C 2.8125 -40.523438 2.910156 -40.859375 3.109375 -41.140625 C 3.304688 -41.429688 3.582031 -41.578125 3.9375 -41.578125 C 6.820312 -41.441406 9.421875 -41.375 11.734375 -41.375 L 32.328125 -41.375 C 33.460938 -41.375 34.03125 -40.851562 34.03125 -39.8125 L 34.234375 -30.625 C 34.234375 -30.226562 34.035156 -29.910156 33.640625 -29.671875 C 33.242188 -29.429688 32.851562 -29.3125 32.46875 -29.3125 C 31.9375 -29.3125 31.472656 -29.410156 31.078125 -29.609375 C 30.691406 -29.804688 30.472656 -30.101562 30.421875 -30.5 C 30.078125 -32.632812 29.695312 -34.257812 29.28125 -35.375 C 28.863281 -36.488281 28.25 -37.316406 27.4375 -37.859375 C 26.632812 -38.410156 25.488281 -38.707031 24 -38.75 L 15.21875 -38.75 L 15.21875 -22.09375 L 27.078125 -22.09375 C 27.390625 -22.050781 27.628906 -21.890625 27.796875 -21.609375 C 27.972656 -21.328125 28.0625 -20.988281 28.0625 -20.59375 C 28.0625 -20.238281 27.972656 -19.929688 27.796875 -19.671875 C 27.628906 -19.410156 27.390625 -19.28125 27.078125 -19.28125 L 15.21875 -19.28125 L 15.21875 -6.890625 C 15.300781 -5.972656 15.40625 -5.238281 15.53125 -4.6875 C 15.664062 -4.144531 16.0625 -3.65625 16.71875 -3.21875 C 17.375 -2.78125 18.398438 -2.582031 19.796875 -2.625 L 25.84375 -2.625 C 27.375 -2.664062 28.53125 -2.914062 29.3125 -3.375 C 30.101562 -3.832031 30.726562 -4.539062 31.1875 -5.5 C 31.644531 -6.46875 32.203125 -8.046875 32.859375 -10.234375 C 33.160156 -11.015625 33.898438 -11.316406 35.078125 -11.140625 C 35.515625 -11.054688 35.894531 -10.882812 36.21875 -10.625 C 36.550781 -10.363281 36.695312 -10.035156 36.65625 -9.640625 L 35.34375 -1.375 C 35.21875 -0.8125 35.019531 -0.441406 34.75 -0.265625 C 34.488281 -0.0859375 34.050781 0 33.4375 0 L 11.796875 0 C 9.441406 0 6.820312 0.0664062 3.9375 0.203125 Z M 3.9375 0.203125 "/></g></g></g><g fill="#000000" fill-opacity="1"><g transform="translate(181.799545, 232.941437)"><g><path d="M 4.0625 0.203125 C 3.664062 0.203125 3.367188 0.0625 3.171875 -0.21875 C 2.984375 -0.507812 2.890625 -0.851562 2.890625 -1.25 C 2.929688 -1.90625 3.0625 -2.296875 3.28125 -2.421875 C 3.5 -2.554688 3.914062 -2.625 4.53125 -2.625 C 5.789062 -2.625 6.71875 -2.851562 7.3125 -3.3125 C 7.90625 -3.769531 8.265625 -4.316406 8.390625 -4.953125 C 8.523438 -5.585938 8.613281 -6.492188 8.65625 -7.671875 L 8.78125 -33.703125 C 8.78125 -35.015625 8.640625 -36.007812 8.359375 -36.6875 C 8.078125 -37.363281 7.628906 -37.851562 7.015625 -38.15625 C 6.398438 -38.46875 5.523438 -38.734375 4.390625 -38.953125 C 3.648438 -39.085938 3.191406 -39.21875 3.015625 -39.34375 C 2.835938 -39.476562 2.75 -39.851562 2.75 -40.46875 C 2.75 -40.988281 2.890625 -41.332031 3.171875 -41.5 C 3.460938 -41.675781 3.914062 -41.765625 4.53125 -41.765625 C 7.238281 -41.765625 9.378906 -41.578125 10.953125 -41.203125 C 12.523438 -40.835938 13.910156 -40.171875 15.109375 -39.203125 C 16.316406 -38.242188 17.640625 -36.785156 19.078125 -34.828125 L 37.046875 -11.21875 L 37.25 -11.21875 L 37.125 -33.703125 C 37.070312 -34.890625 36.976562 -35.796875 36.84375 -36.421875 C 36.71875 -37.054688 36.359375 -37.601562 35.765625 -38.0625 C 35.179688 -38.519531 34.253906 -38.75 32.984375 -38.75 L 32.59375 -38.75 C 32.15625 -38.75 31.835938 -38.828125 31.640625 -38.984375 C 31.441406 -39.140625 31.320312 -39.523438 31.28125 -40.140625 C 31.28125 -40.523438 31.390625 -40.859375 31.609375 -41.140625 C 31.828125 -41.429688 32.113281 -41.578125 32.46875 -41.578125 C 35.257812 -41.441406 37.351562 -41.375 38.75 -41.375 C 39.582031 -41.375 41.179688 -41.421875 43.546875 -41.515625 L 44.921875 -41.578125 C 45.316406 -41.578125 45.609375 -41.429688 45.796875 -41.140625 C 45.992188 -40.859375 46.09375 -40.523438 46.09375 -40.140625 C 46.050781 -39.484375 45.921875 -39.085938 45.703125 -38.953125 C 45.484375 -38.816406 45.070312 -38.75 44.46875 -38.75 C 43.195312 -38.75 42.265625 -38.519531 41.671875 -38.0625 C 41.085938 -37.601562 40.726562 -37.054688 40.59375 -36.421875 C 40.457031 -35.796875 40.367188 -34.890625 40.328125 -33.703125 L 40.203125 -0.65625 C 40.160156 -0.0820312 39.613281 0.203125 38.5625 0.203125 C 37.726562 0.203125 37.09375 -0.0820312 36.65625 -0.65625 L 11.9375 -33.703125 L 11.734375 -33.703125 L 11.875 -7.671875 C 11.914062 -6.492188 12 -5.585938 12.125 -4.953125 C 12.257812 -4.316406 12.617188 -3.769531 13.203125 -3.3125 C 13.796875 -2.851562 14.726562 -2.625 16 -2.625 L 16.390625 -2.625 C 16.828125 -2.625 17.144531 -2.546875 17.34375 -2.390625 C 17.539062 -2.242188 17.660156 -1.863281 17.703125 -1.25 C 17.703125 -0.851562 17.601562 -0.507812 17.40625 -0.21875 C 17.207031 0.0625 16.914062 0.203125 16.53125 0.203125 C 13.726562 0.0664062 11.609375 0 10.171875 0 C 9.296875 0 7.765625 0.0390625 5.578125 0.125 Z M 4.0625 0.203125 "/></g></g></g><g fill="#000000" fill-opacity="1"><g transform="translate(234.975127, 232.941437)"><g><path d="M 23.546875 1.3125 C 20.179688 1.3125 17.304688 0.722656 14.921875 -0.453125 C 12.535156 -1.640625 10.726562 -3.191406 9.5 -5.109375 C 8.28125 -7.035156 7.671875 -9.113281 7.671875 -11.34375 L 7.671875 -33.703125 C 7.628906 -34.796875 7.53125 -35.679688 7.375 -36.359375 C 7.21875 -37.035156 6.832031 -37.601562 6.21875 -38.0625 C 5.613281 -38.519531 4.675781 -38.75 3.40625 -38.75 L 3.015625 -38.75 C 2.578125 -38.75 2.269531 -38.828125 2.09375 -38.984375 C 1.925781 -39.140625 1.816406 -39.523438 1.765625 -40.140625 C 1.765625 -40.523438 1.863281 -40.859375 2.0625 -41.140625 C 2.257812 -41.429688 2.554688 -41.578125 2.953125 -41.578125 C 5.742188 -41.441406 8.320312 -41.375 10.6875 -41.375 C 13.351562 -41.375 16.085938 -41.441406 18.890625 -41.578125 C 19.285156 -41.578125 19.578125 -41.429688 19.765625 -41.140625 C 19.960938 -40.859375 20.0625 -40.523438 20.0625 -40.140625 C 20.019531 -39.523438 19.898438 -39.140625 19.703125 -38.984375 C 19.503906 -38.828125 19.1875 -38.75 18.75 -38.75 C 17.351562 -38.75 16.328125 -38.53125 15.671875 -38.09375 C 15.015625 -37.65625 14.609375 -37.109375 14.453125 -36.453125 C 14.304688 -35.804688 14.210938 -34.890625 14.171875 -33.703125 L 14.171875 -13.25 C 14.171875 -10.226562 14.878906 -7.691406 16.296875 -5.640625 C 17.710938 -3.585938 20.476562 -2.5625 24.59375 -2.5625 C 28.613281 -2.5625 31.460938 -3.488281 33.140625 -5.34375 C 34.828125 -7.195312 35.671875 -9.523438 35.671875 -12.328125 L 35.671875 -29.578125 C 35.671875 -32.546875 35.5625 -34.640625 35.34375 -35.859375 C 35.125 -37.085938 34.6875 -37.875 34.03125 -38.21875 C 33.375 -38.570312 32.238281 -38.75 30.625 -38.75 L 30.234375 -38.75 C 29.835938 -38.75 29.539062 -38.828125 29.34375 -38.984375 C 29.144531 -39.140625 29.023438 -39.523438 28.984375 -40.140625 C 28.984375 -40.523438 29.082031 -40.859375 29.28125 -41.140625 C 29.476562 -41.429688 29.773438 -41.578125 30.171875 -41.578125 C 33.003906 -41.441406 35.453125 -41.375 37.515625 -41.375 C 39.609375 -41.375 42.054688 -41.441406 44.859375 -41.578125 C 45.253906 -41.578125 45.546875 -41.429688 45.734375 -41.140625 C 45.929688 -40.859375 46.03125 -40.523438 46.03125 -40.140625 C 45.988281 -39.523438 45.867188 -39.140625 45.671875 -38.984375 C 45.472656 -38.828125 45.15625 -38.75 44.71875 -38.75 C 42.96875 -38.75 41.753906 -38.597656 41.078125 -38.296875 C 40.398438 -37.992188 39.941406 -37.257812 39.703125 -36.09375 C 39.460938 -34.9375 39.34375 -32.894531 39.34375 -29.96875 L 39.34375 -11.671875 C 39.34375 -8.742188 38.535156 -6.304688 36.921875 -4.359375 C 35.304688 -2.410156 33.285156 -0.976562 30.859375 -0.0625 C 28.429688 0.851562 25.992188 1.3125 23.546875 1.3125 Z M 23.546875 1.3125 "/></g></g></g><g fill="#000000" fill-opacity="1"><g transform="translate(287.03608, 232.941437)"><g><path d="M 3.9375 0.203125 C 3.582031 0.203125 3.304688 0.0625 3.109375 -0.21875 C 2.910156 -0.507812 2.8125 -0.851562 2.8125 -1.25 C 2.863281 -1.90625 3 -2.296875 3.21875 -2.421875 C 3.4375 -2.554688 3.847656 -2.625 4.453125 -2.625 C 5.722656 -2.625 6.664062 -2.851562 7.28125 -3.3125 C 7.894531 -3.769531 8.273438 -4.335938 8.421875 -5.015625 C 8.578125 -5.691406 8.675781 -6.578125 8.71875 -7.671875 L 8.71875 -33.703125 C 8.675781 -34.796875 8.578125 -35.679688 8.421875 -36.359375 C 8.273438 -37.035156 7.894531 -37.601562 7.28125 -38.0625 C 6.664062 -38.519531 5.722656 -38.75 4.453125 -38.75 L 4.0625 -38.75 C 3.625 -38.75 3.316406 -38.828125 3.140625 -38.984375 C 2.972656 -39.140625 2.863281 -39.523438 2.8125 -40.140625 C 2.8125 -40.523438 2.910156 -40.859375 3.109375 -41.140625 C 3.304688 -41.429688 3.582031 -41.578125 3.9375 -41.578125 C 6.820312 -41.441406 9.421875 -41.375 11.734375 -41.375 L 32.328125 -41.375 C 33.460938 -41.375 34.03125 -40.851562 34.03125 -39.8125 L 34.234375 -30.625 C 34.234375 -30.226562 34.035156 -29.910156 33.640625 -29.671875 C 33.242188 -29.429688 32.851562 -29.3125 32.46875 -29.3125 C 31.9375 -29.3125 31.472656 -29.410156 31.078125 -29.609375 C 30.691406 -29.804688 30.472656 -30.101562 30.421875 -30.5 C 30.078125 -32.632812 29.695312 -34.257812 29.28125 -35.375 C 28.863281 -36.488281 28.25 -37.316406 27.4375 -37.859375 C 26.632812 -38.410156 25.488281 -38.707031 24 -38.75 L 15.21875 -38.75 L 15.21875 -22.09375 L 27.078125 -22.09375 C 27.390625 -22.050781 27.628906 -21.890625 27.796875 -21.609375 C 27.972656 -21.328125 28.0625 -20.988281 28.0625 -20.59375 C 28.0625 -20.238281 27.972656 -19.929688 27.796875 -19.671875 C 27.628906 -19.410156 27.390625 -19.28125 27.078125 -19.28125 L 15.21875 -19.28125 L 15.21875 -6.890625 C 15.300781 -5.972656 15.40625 -5.238281 15.53125 -4.6875 C 15.664062 -4.144531 16.0625 -3.65625 16.71875 -3.21875 C 17.375 -2.78125 18.398438 -2.582031 19.796875 -2.625 L 25.84375 -2.625 C 27.375 -2.664062 28.53125 -2.914062 29.3125 -3.375 C 30.101562 -3.832031 30.726562 -4.539062 31.1875 -5.5 C 31.644531 -6.46875 32.203125 -8.046875 32.859375 -10.234375 C 33.160156 -11.015625 33.898438 -11.316406 35.078125 -11.140625 C 35.515625 -11.054688 35.894531 -10.882812 36.21875 -10.625 C 36.550781 -10.363281 36.695312 -10.035156 36.65625 -9.640625 L 35.34375 -1.375 C 35.21875 -0.8125 35.019531 -0.441406 34.75 -0.265625 C 34.488281 -0.0859375 34.050781 0 33.4375 0 L 11.796875 0 C 9.441406 0 6.820312 0.0664062 3.9375 0.203125 Z M 3.9375 0.203125 "/></g></g></g><g fill="#000000" fill-opacity="1"><g transform="translate(330.835609, 232.941437)"><g/></g></g><g fill="#000000" fill-opacity="1"><g transform="translate(151.102752, 264.418573)"><g><path d="M 11.953125 0.390625 C 11.171875 -1.753906 9.925781 -5.175781 8.21875 -9.875 C 6.519531 -14.570312 5.273438 -17.96875 4.484375 -20.0625 C 4.035156 -21.1875 3.601562 -21.972656 3.1875 -22.421875 C 2.769531 -22.867188 2.15625 -23.171875 1.34375 -23.328125 C 1.238281 -23.359375 1.078125 -23.390625 0.859375 -23.421875 C 0.648438 -23.460938 0.515625 -23.539062 0.453125 -23.65625 C 0.390625 -23.78125 0.359375 -23.972656 0.359375 -24.234375 C 0.359375 -24.546875 0.441406 -24.753906 0.609375 -24.859375 C 0.773438 -24.960938 1.046875 -25.015625 1.421875 -25.015625 C 3.378906 -25.015625 4.867188 -24.710938 5.890625 -24.109375 C 6.921875 -23.515625 7.738281 -22.441406 8.34375 -20.890625 L 14.046875 -5.546875 L 14.15625 -5.546875 L 19.59375 -21.328125 C 19.75 -21.773438 19.828125 -22.113281 19.828125 -22.34375 C 19.828125 -22.707031 19.675781 -22.945312 19.375 -23.0625 C 19.070312 -23.1875 18.566406 -23.25 17.859375 -23.25 L 17.625 -23.25 C 17.363281 -23.25 17.179688 -23.296875 17.078125 -23.390625 C 16.972656 -23.484375 16.90625 -23.710938 16.875 -24.078125 C 16.875 -24.316406 16.929688 -24.519531 17.046875 -24.6875 C 17.171875 -24.851562 17.335938 -24.9375 17.546875 -24.9375 C 19.253906 -24.863281 20.679688 -24.828125 21.828125 -24.828125 C 22.328125 -24.828125 23.285156 -24.851562 24.703125 -24.90625 L 25.53125 -24.9375 C 25.769531 -24.9375 25.945312 -24.851562 26.0625 -24.6875 C 26.1875 -24.519531 26.25 -24.316406 26.25 -24.078125 C 26.21875 -23.710938 26.148438 -23.484375 26.046875 -23.390625 C 25.941406 -23.296875 25.757812 -23.25 25.5 -23.25 C 24.363281 -23.25 23.5 -23.066406 22.90625 -22.703125 C 22.320312 -22.335938 21.820312 -21.628906 21.40625 -20.578125 C 20.613281 -18.421875 19.34375 -14.9375 17.59375 -10.125 C 15.851562 -5.3125 14.59375 -1.804688 13.8125 0.390625 Z M 11.953125 0.390625 "/></g></g></g><g fill="#000000" fill-opacity="1"><g transform="translate(179.510844, 264.418573)"><g><path d="M 2.359375 0.125 C 2.117188 0.125 1.941406 0.0390625 1.828125 -0.125 C 1.710938 -0.300781 1.65625 -0.507812 1.65625 -0.75 C 1.675781 -1.144531 1.757812 -1.378906 1.90625 -1.453125 C 2.050781 -1.535156 2.296875 -1.578125 2.640625 -1.578125 C 3.398438 -1.578125 3.960938 -1.710938 4.328125 -1.984375 C 4.691406 -2.265625 4.925781 -2.597656 5.03125 -2.984375 C 5.132812 -3.378906 5.203125 -3.921875 5.234375 -4.609375 L 5.234375 -20.21875 C 5.203125 -20.90625 5.132812 -21.441406 5.03125 -21.828125 C 4.925781 -22.222656 4.691406 -22.554688 4.328125 -22.828125 C 3.960938 -23.109375 3.398438 -23.25 2.640625 -23.25 L 2.40625 -23.25 C 2.164062 -23.25 1.984375 -23.296875 1.859375 -23.390625 C 1.742188 -23.484375 1.675781 -23.710938 1.65625 -24.078125 C 1.65625 -24.316406 1.710938 -24.519531 1.828125 -24.6875 C 1.941406 -24.851562 2.117188 -24.9375 2.359375 -24.9375 C 4.066406 -24.863281 5.628906 -24.828125 7.046875 -24.828125 C 8.617188 -24.828125 10.253906 -24.863281 11.953125 -24.9375 C 12.191406 -24.9375 12.367188 -24.851562 12.484375 -24.6875 C 12.609375 -24.519531 12.671875 -24.316406 12.671875 -24.078125 C 12.640625 -23.679688 12.550781 -23.441406 12.40625 -23.359375 C 12.269531 -23.285156 12.015625 -23.25 11.640625 -23.25 C 10.878906 -23.25 10.316406 -23.109375 9.953125 -22.828125 C 9.585938 -22.554688 9.359375 -22.21875 9.265625 -21.8125 C 9.171875 -21.40625 9.113281 -20.875 9.09375 -20.21875 L 9.09375 -4.609375 C 9.113281 -3.953125 9.171875 -3.421875 9.265625 -3.015625 C 9.359375 -2.609375 9.585938 -2.265625 9.953125 -1.984375 C 10.316406 -1.710938 10.878906 -1.578125 11.640625 -1.578125 L 11.875 -1.578125 C 12.144531 -1.578125 12.335938 -1.53125 12.453125 -1.4375 C 12.566406 -1.34375 12.640625 -1.113281 12.671875 -0.75 C 12.671875 -0.507812 12.609375 -0.300781 12.484375 -0.125 C 12.367188 0.0390625 12.191406 0.125 11.953125 0.125 C 10.273438 0.0390625 8.648438 0 7.078125 0 C 5.640625 0 4.066406 0.0390625 2.359375 0.125 Z M 2.359375 0.125 "/></g></g></g><g fill="#000000" fill-opacity="1"><g transform="translate(196.744569, 264.418573)"><g><path d="M 10.421875 0.78125 C 7.671875 0.78125 5.566406 0.304688 4.109375 -0.640625 C 2.648438 -1.597656 1.921875 -3.007812 1.921875 -4.875 C 1.921875 -5.820312 2.242188 -6.601562 2.890625 -7.21875 C 3.535156 -7.832031 4.367188 -8.140625 5.390625 -8.140625 C 5.992188 -8.117188 6.453125 -7.96875 6.765625 -7.6875 C 7.078125 -7.414062 7.234375 -7.160156 7.234375 -6.921875 C 7.234375 -6.898438 7.101562 -6.804688 6.84375 -6.640625 C 6.582031 -6.484375 6.347656 -6.25 6.140625 -5.9375 C 5.929688 -5.625 5.828125 -5.191406 5.828125 -4.640625 C 5.828125 -3.410156 6.195312 -2.457031 6.9375 -1.78125 C 7.6875 -1.113281 8.847656 -0.78125 10.421875 -0.78125 C 11.503906 -0.78125 12.453125 -0.988281 13.265625 -1.40625 C 14.078125 -1.832031 14.695312 -2.390625 15.125 -3.078125 C 15.5625 -3.773438 15.78125 -4.503906 15.78125 -5.265625 C 15.78125 -6.210938 15.507812 -7.023438 14.96875 -7.703125 C 14.425781 -8.390625 13.757812 -8.960938 12.96875 -9.421875 C 12.1875 -9.878906 11.113281 -10.410156 9.75 -11.015625 C 8.175781 -11.722656 6.90625 -12.363281 5.9375 -12.9375 C 4.96875 -13.519531 4.140625 -14.289062 3.453125 -15.25 C 2.773438 -16.207031 2.4375 -17.394531 2.4375 -18.8125 C 2.4375 -21.09375 3.21875 -22.796875 4.78125 -23.921875 C 6.34375 -25.046875 8.394531 -25.609375 10.9375 -25.609375 C 12.925781 -25.609375 14.660156 -25.1875 16.140625 -24.34375 C 17.628906 -23.507812 18.375 -22.28125 18.375 -20.65625 C 18.375 -19.707031 18.050781 -18.925781 17.40625 -18.3125 C 16.769531 -17.695312 15.9375 -17.390625 14.90625 -17.390625 C 14.300781 -17.410156 13.84375 -17.554688 13.53125 -17.828125 C 13.21875 -18.109375 13.0625 -18.367188 13.0625 -18.609375 C 13.0625 -18.640625 13.238281 -18.734375 13.59375 -18.890625 C 13.945312 -19.046875 14.257812 -19.28125 14.53125 -19.59375 C 14.8125 -19.90625 14.953125 -20.335938 14.953125 -20.890625 C 14.953125 -21.859375 14.578125 -22.617188 13.828125 -23.171875 C 13.078125 -23.722656 12.128906 -24 10.984375 -24 C 9.378906 -24 8.160156 -23.625 7.328125 -22.875 C 6.503906 -22.125 6.09375 -21.203125 6.09375 -20.109375 C 6.09375 -19.191406 6.34375 -18.421875 6.84375 -17.796875 C 7.34375 -17.179688 8.144531 -16.570312 9.25 -15.96875 C 10.132812 -15.5 11.101562 -15.03125 12.15625 -14.5625 C 13.832031 -13.800781 15.160156 -13.101562 16.140625 -12.46875 C 17.128906 -11.84375 17.957031 -11.015625 18.625 -9.984375 C 19.289062 -8.960938 19.625 -7.691406 19.625 -6.171875 C 19.625 -4.859375 19.210938 -3.671875 18.390625 -2.609375 C 17.566406 -1.546875 16.453125 -0.710938 15.046875 -0.109375 C 13.640625 0.484375 12.097656 0.78125 10.421875 0.78125 Z M 10.421875 0.78125 "/></g></g></g><g fill="#000000" fill-opacity="1"><g transform="translate(221.099997, 264.418573)"><g><path d="M 7.046875 0.125 C 6.804688 0.125 6.625 0.0390625 6.5 -0.125 C 6.382812 -0.300781 6.328125 -0.507812 6.328125 -0.75 C 6.359375 -1.144531 6.4375 -1.378906 6.5625 -1.453125 C 6.695312 -1.535156 6.945312 -1.578125 7.3125 -1.578125 C 8.070312 -1.578125 8.632812 -1.710938 9 -1.984375 C 9.375 -2.265625 9.609375 -2.609375 9.703125 -3.015625 C 9.796875 -3.421875 9.851562 -3.953125 9.875 -4.609375 L 9.875 -23.375 L 7.15625 -23.375 C 6.269531 -23.34375 5.582031 -23.148438 5.09375 -22.796875 C 4.601562 -22.441406 4.234375 -21.914062 3.984375 -21.21875 C 3.742188 -20.53125 3.53125 -19.539062 3.34375 -18.25 C 3.320312 -18.039062 3.164062 -17.867188 2.875 -17.734375 C 2.582031 -17.609375 2.28125 -17.546875 1.96875 -17.546875 C 1.726562 -17.546875 1.507812 -17.617188 1.3125 -17.765625 C 1.113281 -17.910156 1.015625 -18.097656 1.015625 -18.328125 L 1.140625 -23.875 C 1.140625 -24.507812 1.492188 -24.828125 2.203125 -24.828125 L 21.4375 -24.828125 C 22.125 -24.828125 22.46875 -24.507812 22.46875 -23.875 L 22.625 -18.328125 C 22.625 -18.097656 22.519531 -17.910156 22.3125 -17.765625 C 22.101562 -17.617188 21.878906 -17.546875 21.640625 -17.546875 C 21.328125 -17.546875 21.03125 -17.609375 20.75 -17.734375 C 20.476562 -17.867188 20.328125 -18.039062 20.296875 -18.25 C 20.085938 -19.5625 19.863281 -20.554688 19.625 -21.234375 C 19.394531 -21.921875 19.03125 -22.441406 18.53125 -22.796875 C 18.03125 -23.148438 17.335938 -23.34375 16.453125 -23.375 L 13.765625 -23.375 L 13.765625 -4.609375 C 13.796875 -3.953125 13.851562 -3.421875 13.9375 -3.015625 C 14.03125 -2.609375 14.257812 -2.265625 14.625 -1.984375 C 15 -1.710938 15.566406 -1.578125 16.328125 -1.578125 L 16.5625 -1.578125 C 16.800781 -1.578125 16.976562 -1.53125 17.09375 -1.4375 C 17.207031 -1.34375 17.28125 -1.113281 17.3125 -0.75 C 17.3125 -0.507812 17.25 -0.300781 17.125 -0.125 C 17.007812 0.0390625 16.835938 0.125 16.609375 0.125 C 14.921875 0.0390625 13.367188 0 11.953125 0 C 10.378906 0 8.742188 0.0390625 7.046875 0.125 Z M 7.046875 0.125 "/></g></g></g><g fill="#000000" fill-opacity="1"><g transform="translate(247.619468, 264.418573)"><g><path d="M 0.234375 0.125 C -0.00390625 0.125 -0.179688 0.0390625 -0.296875 -0.125 C -0.410156 -0.300781 -0.46875 -0.507812 -0.46875 -0.75 C -0.445312 -1.144531 -0.367188 -1.378906 -0.234375 -1.453125 C -0.109375 -1.535156 0.046875 -1.578125 0.234375 -1.578125 C 0.421875 -1.578125 0.539062 -1.578125 0.59375 -1.578125 C 1.375 -1.578125 1.945312 -1.78125 2.3125 -2.1875 C 2.6875 -2.59375 2.984375 -3.050781 3.203125 -3.5625 C 3.429688 -4.070312 3.582031 -4.421875 3.65625 -4.609375 L 10.546875 -20.890625 C 10.703125 -21.285156 10.78125 -21.597656 10.78125 -21.828125 C 10.78125 -22.304688 10.59375 -22.648438 10.21875 -22.859375 C 9.851562 -23.066406 9.34375 -23.238281 8.6875 -23.375 C 8.25 -23.445312 7.976562 -23.519531 7.875 -23.59375 C 7.769531 -23.675781 7.71875 -23.90625 7.71875 -24.28125 C 7.71875 -24.59375 7.800781 -24.800781 7.96875 -24.90625 C 8.132812 -25.007812 8.40625 -25.0625 8.78125 -25.0625 C 10.082031 -25.0625 11.117188 -24.960938 11.890625 -24.765625 C 12.671875 -24.566406 13.347656 -24.171875 13.921875 -23.578125 C 14.503906 -22.992188 15.046875 -22.097656 15.546875 -20.890625 L 22.15625 -4.609375 C 22.539062 -3.609375 22.914062 -2.859375 23.28125 -2.359375 C 23.65625 -1.859375 24.207031 -1.597656 24.9375 -1.578125 L 25.1875 -1.578125 C 25.445312 -1.578125 25.628906 -1.53125 25.734375 -1.4375 C 25.835938 -1.34375 25.898438 -1.113281 25.921875 -0.75 C 25.921875 -0.507812 25.863281 -0.300781 25.75 -0.125 C 25.632812 0.0390625 25.457031 0.125 25.21875 0.125 C 23.539062 0.0390625 22.097656 0 20.890625 0 C 19.316406 0 17.691406 0.0390625 16.015625 0.125 C 15.773438 0.125 15.597656 0.0390625 15.484375 -0.125 C 15.367188 -0.300781 15.3125 -0.507812 15.3125 -0.75 C 15.332031 -1.113281 15.394531 -1.34375 15.5 -1.4375 C 15.601562 -1.53125 15.785156 -1.578125 16.046875 -1.578125 C 16.941406 -1.578125 17.570312 -1.660156 17.9375 -1.828125 C 18.300781 -1.992188 18.484375 -2.300781 18.484375 -2.75 C 18.484375 -3.09375 18.328125 -3.710938 18.015625 -4.609375 L 16.6875 -7.875 L 6.96875 -7.875 C 6.3125 -6.238281 5.9375 -5.289062 5.84375 -5.03125 C 5.75 -4.769531 5.703125 -4.628906 5.703125 -4.609375 C 5.390625 -3.609375 5.234375 -2.960938 5.234375 -2.671875 C 5.234375 -2.222656 5.425781 -1.925781 5.8125 -1.78125 C 6.207031 -1.644531 6.957031 -1.578125 8.0625 -1.578125 L 8.296875 -1.578125 C 8.554688 -1.578125 8.738281 -1.53125 8.84375 -1.4375 C 8.957031 -1.34375 9.023438 -1.113281 9.046875 -0.75 C 9.046875 -0.507812 8.984375 -0.300781 8.859375 -0.125 C 8.742188 0.0390625 8.570312 0.125 8.34375 0.125 C 6.664062 0.0390625 5.234375 0 4.046875 0 C 3.210938 0 1.941406 0.0390625 0.234375 0.125 Z M 7.71875 -9.5625 L 15.96875 -9.5625 L 12 -19.671875 L 11.875 -19.671875 Z M 7.71875 -9.5625 "/></g></g></g><g fill="#000000" fill-opacity="1"><g transform="translate(276.224291, 264.418573)"><g/></g></g></svg>